<svg  viewBox="0 0 205 120" fill="none" xmlns="http://www.w3.org/2000/svg">
<rect x="22" y="19" width="73" height="55" rx="6" fill="#EBEDF0"/>
<circle cx="59" cy="92" r="9.5" fill="currentColor" stroke="currentColor"/>
<path d="M39.9531 34.3594L42.1875 34.6875C42.375 34.7188 42.5312 34.8438 42.5938 35.0312C42.6562 35.2031 42.6094 35.4062 42.4688 35.5312L40.8438 37.1406L41.2344 39.4219C41.2656 39.6094 41.1875 39.7969 41.0312 39.9062C40.875 40.0312 40.6719 40.0312 40.5 39.9531L38.5 38.875L36.4844 39.9531C36.3281 40.0312 36.1094 40.0312 35.9688 39.9062C35.8125 39.7969 35.7344 39.6094 35.7656 39.4219L36.1406 37.1406L34.5156 35.5312C34.375 35.4062 34.3281 35.2031 34.3906 35.0312C34.4531 34.8438 34.6094 34.7188 34.7969 34.6875L37.0469 34.3594L38.0469 32.2812C38.125 32.1094 38.2969 32 38.5 32C38.6875 32 38.8594 32.1094 38.9375 32.2812L39.9531 34.3594Z" fill="currentColor" class="star"/>
<path d="M49.9531 34.3594L52.1875 34.6875C52.375 34.7188 52.5312 34.8438 52.5938 35.0312C52.6562 35.2031 52.6094 35.4062 52.4688 35.5312L50.8438 37.1406L51.2344 39.4219C51.2656 39.6094 51.1875 39.7969 51.0312 39.9062C50.875 40.0312 50.6719 40.0312 50.5 39.9531L48.5 38.875L46.4844 39.9531C46.3281 40.0312 46.1094 40.0312 45.9688 39.9062C45.8125 39.7969 45.7344 39.6094 45.7656 39.4219L46.1406 37.1406L44.5156 35.5312C44.375 35.4062 44.3281 35.2031 44.3906 35.0312C44.4531 34.8438 44.6094 34.7188 44.7969 34.6875L47.0469 34.3594L48.0469 32.2812C48.125 32.1094 48.2969 32 48.5 32C48.6875 32 48.8594 32.1094 48.9375 32.2812L49.9531 34.3594Z" fill="currentColor" class="star"/>
<path d="M59.9531 34.3594L62.1875 34.6875C62.375 34.7188 62.5312 34.8438 62.5938 35.0312C62.6562 35.2031 62.6094 35.4062 62.4688 35.5312L60.8438 37.1406L61.2344 39.4219C61.2656 39.6094 61.1875 39.7969 61.0312 39.9062C60.875 40.0312 60.6719 40.0312 60.5 39.9531L58.5 38.875L56.4844 39.9531C56.3281 40.0312 56.1094 40.0312 55.9688 39.9062C55.8125 39.7969 55.7344 39.6094 55.7656 39.4219L56.1406 37.1406L54.5156 35.5312C54.375 35.4062 54.3281 35.2031 54.3906 35.0312C54.4531 34.8438 54.6094 34.7188 54.7969 34.6875L57.0469 34.3594L58.0469 32.2812C58.125 32.1094 58.2969 32 58.5 32C58.6875 32 58.8594 32.1094 58.9375 32.2812L59.9531 34.3594Z" fill="currentColor" class="star"/>
<path d="M69.9531 34.3594L72.1875 34.6875C72.375 34.7188 72.5312 34.8438 72.5938 35.0312C72.6562 35.2031 72.6094 35.4062 72.4688 35.5312L70.8438 37.1406L71.2344 39.4219C71.2656 39.6094 71.1875 39.7969 71.0312 39.9062C70.875 40.0312 70.6719 40.0312 70.5 39.9531L68.5 38.875L66.4844 39.9531C66.3281 40.0312 66.1094 40.0312 65.9688 39.9062C65.8125 39.7969 65.7344 39.6094 65.7656 39.4219L66.1406 37.1406L64.5156 35.5312C64.375 35.4062 64.3281 35.2031 64.3906 35.0312C64.4531 34.8438 64.6094 34.7188 64.7969 34.6875L67.0469 34.3594L68.0469 32.2812C68.125 32.1094 68.2969 32 68.5 32C68.6875 32 68.8594 32.1094 68.9375 32.2812L69.9531 34.3594Z" fill="currentColor" class="star"/>
<path d="M81.2344 39.4219C81.2656 39.6094 81.1875 39.7969 81.0312 39.9062C80.875 40.0312 80.6719 40.0312 80.5 39.9531L78.5 38.875L76.4844 39.9531C76.3281 40.0312 76.1094 40.0312 75.9688 39.9062C75.8125 39.7969 75.7344 39.6094 75.7656 39.4219L76.1406 37.1406L74.5156 35.5312C74.375 35.4062 74.3281 35.2031 74.3906 35.0312C74.4531 34.8438 74.6094 34.7188 74.7969 34.6875L77.0469 34.3594L78.0469 32.2812C78.125 32.1094 78.2969 32 78.5 32C78.6875 32 78.8594 32.1094 78.9375 32.2812L79.9531 34.3594L82.1875 34.6875C82.375 34.7188 82.5312 34.8438 82.5938 35.0312C82.6562 35.2031 82.6094 35.4062 82.4688 35.5312L80.8438 37.1406L81.2344 39.4219ZM78.5 37.8906L80.2344 38.8125L79.9062 36.8438L81.3281 35.4375L79.3594 35.1562L78.5 33.3594V33.375V37.8906Z" fill="currentColor" class="star"/>
<rect x="33" y="48" width="52" height="3" rx="1.5" fill="currentColor"/>
<rect x="33" y="55" width="52" height="3" rx="1.5" fill="currentColor"/>
<rect x="41" y="62" width="36" height="3" rx="1.5" fill="currentColor"/>
<path d="M59 80L52.9378 74L65.0622 74L59 80Z" fill="#EBEDF0"/>
<rect x="110" y="19" width="73" height="55" rx="6" fill="#EBEDF0"/>
<circle cx="147" cy="92" r="9.5" fill="currentColor" stroke="currentColor"/>
<path d="M127.953 34.3594L130.188 34.6875C130.375 34.7188 130.531 34.8438 130.594 35.0312C130.656 35.2031 130.609 35.4062 130.469 35.5312L128.844 37.1406L129.234 39.4219C129.266 39.6094 129.188 39.7969 129.031 39.9062C128.875 40.0312 128.672 40.0312 128.5 39.9531L126.5 38.875L124.484 39.9531C124.328 40.0312 124.109 40.0312 123.969 39.9062C123.812 39.7969 123.734 39.6094 123.766 39.4219L124.141 37.1406L122.516 35.5312C122.375 35.4062 122.328 35.2031 122.391 35.0312C122.453 34.8438 122.609 34.7188 122.797 34.6875L125.047 34.3594L126.047 32.2812C126.125 32.1094 126.297 32 126.5 32C126.688 32 126.859 32.1094 126.938 32.2812L127.953 34.3594Z" fill="currentColor" class="star"/>
<path d="M137.953 34.3594L140.188 34.6875C140.375 34.7188 140.531 34.8438 140.594 35.0312C140.656 35.2031 140.609 35.4062 140.469 35.5312L138.844 37.1406L139.234 39.4219C139.266 39.6094 139.188 39.7969 139.031 39.9062C138.875 40.0312 138.672 40.0312 138.5 39.9531L136.5 38.875L134.484 39.9531C134.328 40.0312 134.109 40.0312 133.969 39.9062C133.812 39.7969 133.734 39.6094 133.766 39.4219L134.141 37.1406L132.516 35.5312C132.375 35.4062 132.328 35.2031 132.391 35.0312C132.453 34.8438 132.609 34.7188 132.797 34.6875L135.047 34.3594L136.047 32.2812C136.125 32.1094 136.297 32 136.5 32C136.688 32 136.859 32.1094 136.938 32.2812L137.953 34.3594Z" fill="currentColor" class="star"/>
<path d="M147.953 34.3594L150.188 34.6875C150.375 34.7188 150.531 34.8438 150.594 35.0312C150.656 35.2031 150.609 35.4062 150.469 35.5312L148.844 37.1406L149.234 39.4219C149.266 39.6094 149.188 39.7969 149.031 39.9062C148.875 40.0312 148.672 40.0312 148.5 39.9531L146.5 38.875L144.484 39.9531C144.328 40.0312 144.109 40.0312 143.969 39.9062C143.812 39.7969 143.734 39.6094 143.766 39.4219L144.141 37.1406L142.516 35.5312C142.375 35.4062 142.328 35.2031 142.391 35.0312C142.453 34.8438 142.609 34.7188 142.797 34.6875L145.047 34.3594L146.047 32.2812C146.125 32.1094 146.297 32 146.5 32C146.688 32 146.859 32.1094 146.938 32.2812L147.953 34.3594Z" fill="currentColor" class="star"/>
<path d="M157.953 34.3594L160.188 34.6875C160.375 34.7188 160.531 34.8438 160.594 35.0312C160.656 35.2031 160.609 35.4062 160.469 35.5312L158.844 37.1406L159.234 39.4219C159.266 39.6094 159.188 39.7969 159.031 39.9062C158.875 40.0312 158.672 40.0312 158.5 39.9531L156.5 38.875L154.484 39.9531C154.328 40.0312 154.109 40.0312 153.969 39.9062C153.812 39.7969 153.734 39.6094 153.766 39.4219L154.141 37.1406L152.516 35.5312C152.375 35.4062 152.328 35.2031 152.391 35.0312C152.453 34.8438 152.609 34.7188 152.797 34.6875L155.047 34.3594L156.047 32.2812C156.125 32.1094 156.297 32 156.5 32C156.688 32 156.859 32.1094 156.938 32.2812L157.953 34.3594Z" fill="currentColor" class="star"/>
<path d="M169.234 39.4219C169.266 39.6094 169.188 39.7969 169.031 39.9062C168.875 40.0312 168.672 40.0312 168.5 39.9531L166.5 38.875L164.484 39.9531C164.328 40.0312 164.109 40.0312 163.969 39.9062C163.812 39.7969 163.734 39.6094 163.766 39.4219L164.141 37.1406L162.516 35.5312C162.375 35.4062 162.328 35.2031 162.391 35.0312C162.453 34.8438 162.609 34.7188 162.797 34.6875L165.047 34.3594L166.047 32.2812C166.125 32.1094 166.297 32 166.5 32C166.688 32 166.859 32.1094 166.938 32.2812L167.953 34.3594L170.188 34.6875C170.375 34.7188 170.531 34.8438 170.594 35.0312C170.656 35.2031 170.609 35.4062 170.469 35.5312L168.844 37.1406L169.234 39.4219ZM166.5 37.8906L168.234 38.8125L167.906 36.8438L169.328 35.4375L167.359 35.1562L166.5 33.3594V33.375V37.8906Z" fill="currentColor" class="star"/>
<rect x="121" y="48" width="52" height="3" rx="1.5" fill="currentColor"/>
<rect x="121" y="55" width="52" height="3" rx="1.5" fill="currentColor"/>
<rect x="129" y="62" width="36" height="3" rx="1.5" fill="currentColor"/>
<path d="M147 80L140.938 74L153.062 74L147 80Z" fill="#EBEDF0"/>
</svg>
