<svg  viewBox="0 0 205 120" fill="none" xmlns="http://www.w3.org/2000/svg">
<rect x="94.2857" y="12" width="74" height="79.2857" rx="6" transform="rotate(90 94.2857 12)" fill="#EBEDF0"/>
<path d="M88.2857 12C91.5994 12 94.2857 14.6863 94.2857 18L94.2857 38.4286L15 38.4286L15 18C15 14.6863 17.6863 12 21 12L88.2857 12Z" fill="currentColor"/>
<path class="star" d="M35.8304 44.7912L38.0648 45.1198C38.2523 45.1511 38.4085 45.2761 38.4709 45.4636C38.5334 45.6355 38.4865 45.8386 38.3458 45.9636L36.7205 47.5727L37.1107 49.854C37.1419 50.0415 37.0637 50.229 36.9075 50.3383C36.7512 50.4633 36.5481 50.4633 36.3762 50.3851L34.3764 49.3066L32.3606 50.3843C32.2043 50.4624 31.9856 50.4623 31.845 50.3373C31.6887 50.2279 31.6106 50.0404 31.6419 49.8529L32.0174 47.5717L30.3927 45.962C30.2521 45.837 30.2053 45.6339 30.2678 45.462C30.3304 45.2745 30.4866 45.1495 30.6741 45.1183L32.9242 44.7907L33.9246 42.7127C34.0028 42.5409 34.1747 42.4315 34.3778 42.4316C34.5653 42.4316 34.7372 42.541 34.8152 42.7129L35.8304 44.7912Z" fill="currentColor"/>
<path class="star" d="M45.8304 44.7932L48.0648 45.1218C48.2523 45.153 48.4085 45.2781 48.4709 45.4656C48.5334 45.6375 48.4865 45.8406 48.3458 45.9656L46.7205 47.5746L47.1107 49.8559C47.1419 50.0435 47.0637 50.2309 46.9075 50.3403C46.7512 50.4652 46.5481 50.4652 46.3762 50.387L44.3764 49.3085L42.3606 50.3862C42.2043 50.4643 41.9856 50.4643 41.845 50.3393C41.6887 50.2299 41.6106 50.0423 41.6419 49.8548L42.0174 47.5737L40.3927 45.964C40.2521 45.8389 40.2053 45.6358 40.2678 45.4639C40.3304 45.2765 40.4866 45.1515 40.6741 45.1203L42.9242 44.7926L43.9246 42.7147C44.0028 42.5428 44.1747 42.4335 44.3778 42.4335C44.5653 42.4336 44.7372 42.543 44.8152 42.7149L45.8304 44.7932Z" fill="currentColor"/>
<path class="star" d="M55.8304 44.7951L58.0648 45.1237C58.2523 45.155 58.4085 45.28 58.4709 45.4675C58.5334 45.6394 58.4865 45.8425 58.3458 45.9675L56.7205 47.5766L57.1107 49.8579C57.1419 50.0454 57.0637 50.2329 56.9075 50.3422C56.7512 50.4672 56.5481 50.4672 56.3762 50.389L54.3764 49.3105L52.3606 50.3882C52.2043 50.4663 51.9856 50.4662 51.845 50.3412C51.6887 50.2318 51.6106 50.0443 51.6419 49.8568L52.0174 47.5756L50.3927 45.9659C50.2521 45.8409 50.2053 45.6378 50.2678 45.4659C50.3304 45.2784 50.4866 45.1534 50.6741 45.1222L52.9242 44.7946L53.9246 42.7166C54.0028 42.5448 54.1747 42.4354 54.3778 42.4355C54.5653 42.4355 54.7372 42.5449 54.8152 42.7168L55.8304 44.7951Z" fill="currentColor"/>
<path class="star" d="M65.8304 44.7971L68.0648 45.1257C68.2523 45.157 68.4085 45.282 68.4709 45.4695C68.5334 45.6414 68.4865 45.8445 68.3458 45.9695L66.7205 47.5785L67.1107 49.8599C67.1419 50.0474 67.0637 50.2348 66.9075 50.3442C66.7512 50.4692 66.5481 50.4691 66.3762 50.391L64.3764 49.3124L62.3606 50.3901C62.2043 50.4682 61.9856 50.4682 61.845 50.3432C61.6887 50.2338 61.6106 50.0462 61.6419 49.8588L62.0174 47.5776L60.3927 45.9679C60.2521 45.8428 60.2053 45.6397 60.2678 45.4679C60.3304 45.2804 60.4866 45.1554 60.6741 45.1242L62.9242 44.7965L63.9246 42.7186C64.0028 42.5467 64.1747 42.4374 64.3778 42.4374C64.5653 42.4375 64.7372 42.5469 64.8152 42.7188L65.8304 44.7971Z" fill="currentColor"/>
<path class="star" d="M77.1107 49.8618C77.1419 50.0493 77.0637 50.2368 76.9075 50.3461C76.7512 50.4711 76.5481 50.4711 76.3762 50.3929L74.3764 49.3144L72.3606 50.3921C72.2043 50.4702 71.9856 50.4702 71.845 50.3451C71.6887 50.2357 71.6106 50.0482 71.6419 49.8607L72.0174 47.5795L70.3927 45.9698C70.2521 45.8448 70.2053 45.6417 70.2678 45.4698C70.3304 45.2823 70.4866 45.1573 70.6741 45.1261L72.9242 44.7985L73.9246 42.7205C74.0028 42.5487 74.1747 42.4393 74.3778 42.4394C74.5653 42.4394 74.7372 42.5488 74.8152 42.7207L75.8304 44.799L78.0648 45.1276C78.2523 45.1589 78.4085 45.2839 78.4709 45.4715C78.5334 45.6433 78.4865 45.8465 78.3458 45.9714L76.7205 47.5805L77.1107 49.8618ZM74.3766 48.33L76.1108 49.2522L75.7831 47.2834L77.2052 45.8774L75.2365 45.5958L74.3775 43.7988L74.3775 43.8144L74.3766 48.33Z" fill="currentColor"/>
<rect x="23.4608" y="60.6279" width="52" height="3" rx="1.5" fill="currentColor"/>
<rect x="23.4594" y="67.6279" width="52" height="3" rx="1.5" fill="currentColor"/>
<rect x="23.4579" y="74.6279" width="36" height="3" rx="1.5" fill="currentColor"/>
<rect x="189.15" y="34" width="74" height="79.2857" rx="6" transform="rotate(90 189.15 34)" fill="#EBEDF0"/>
<path d="M183.15 34C186.464 34 189.15 36.6863 189.15 40L189.15 60.4286L109.865 60.4286L109.865 40C109.865 36.6863 112.551 34 115.865 34L183.15 34Z" fill="currentColor"/>
<path class="star" d="M130.695 66.7912L132.929 67.1198C133.117 67.1511 133.273 67.2761 133.336 67.4636C133.398 67.6355 133.351 67.8386 133.21 67.9636L131.585 69.5727L131.975 71.854C132.007 72.0415 131.928 72.229 131.772 72.3383C131.616 72.4633 131.413 72.4633 131.241 72.3851L129.241 71.3066L127.225 72.3843C127.069 72.4624 126.85 72.4623 126.71 72.3373C126.553 72.2279 126.475 72.0404 126.507 71.8529L126.882 69.5717L125.257 67.962C125.117 67.837 125.07 67.6339 125.132 67.462C125.195 67.2745 125.351 67.1495 125.539 67.1183L127.789 66.7907L128.789 64.7127C128.867 64.5409 129.039 64.4315 129.242 64.4316C129.43 64.4316 129.602 64.541 129.68 64.7129L130.695 66.7912Z" fill="currentColor"/>
<path class="star" d="M140.695 66.7932L142.929 67.1218C143.117 67.153 143.273 67.2781 143.336 67.4656C143.398 67.6375 143.351 67.8406 143.21 67.9656L141.585 69.5746L141.975 71.8559C142.007 72.0435 141.928 72.2309 141.772 72.3403C141.616 72.4652 141.413 72.4652 141.241 72.387L139.241 71.3085L137.225 72.3862C137.069 72.4643 136.85 72.4643 136.71 72.3393C136.553 72.2299 136.475 72.0423 136.507 71.8548L136.882 69.5737L135.257 67.964C135.117 67.8389 135.07 67.6358 135.132 67.4639C135.195 67.2765 135.351 67.1515 135.539 67.1203L137.789 66.7926L138.789 64.7147C138.867 64.5428 139.039 64.4335 139.242 64.4335C139.43 64.4336 139.602 64.543 139.68 64.7149L140.695 66.7932Z" fill="currentColor"/>
<path class="star" d="M150.695 66.7951L152.929 67.1237C153.117 67.155 153.273 67.28 153.336 67.4675C153.398 67.6394 153.351 67.8425 153.21 67.9675L151.585 69.5766L151.975 71.8579C152.007 72.0454 151.928 72.2329 151.772 72.3422C151.616 72.4672 151.413 72.4672 151.241 72.389L149.241 71.3105L147.225 72.3882C147.069 72.4663 146.85 72.4662 146.71 72.3412C146.553 72.2318 146.475 72.0443 146.507 71.8568L146.882 69.5756L145.257 67.9659C145.117 67.8409 145.07 67.6378 145.132 67.4659C145.195 67.2784 145.351 67.1534 145.539 67.1222L147.789 66.7946L148.789 64.7166C148.867 64.5448 149.039 64.4354 149.242 64.4355C149.43 64.4355 149.602 64.5449 149.68 64.7168L150.695 66.7951Z" fill="currentColor"/>
<path class="star" d="M160.695 66.7971L162.929 67.1257C163.117 67.157 163.273 67.282 163.336 67.4695C163.398 67.6414 163.351 67.8445 163.21 67.9695L161.585 69.5785L161.975 71.8599C162.007 72.0474 161.928 72.2348 161.772 72.3442C161.616 72.4692 161.413 72.4691 161.241 72.391L159.241 71.3124L157.225 72.3901C157.069 72.4682 156.85 72.4682 156.71 72.3432C156.553 72.2338 156.475 72.0462 156.507 71.8588L156.882 69.5776L155.257 67.9679C155.117 67.8428 155.07 67.6397 155.132 67.4679C155.195 67.2804 155.351 67.1554 155.539 67.1242L157.789 66.7965L158.789 64.7186C158.867 64.5467 159.039 64.4374 159.242 64.4374C159.43 64.4375 159.602 64.5469 159.68 64.7188L160.695 66.7971Z" fill="currentColor"/>
<path class="star" d="M171.975 71.8618C172.007 72.0493 171.928 72.2368 171.772 72.3461C171.616 72.4711 171.413 72.4711 171.241 72.3929L169.241 71.3144L167.225 72.3921C167.069 72.4702 166.85 72.4702 166.71 72.3451C166.553 72.2357 166.475 72.0482 166.507 71.8607L166.882 69.5795L165.257 67.9698C165.117 67.8448 165.07 67.6417 165.132 67.4698C165.195 67.2823 165.351 67.1573 165.539 67.1261L167.789 66.7985L168.789 64.7205C168.867 64.5487 169.039 64.4393 169.242 64.4394C169.43 64.4394 169.602 64.5488 169.68 64.7207L170.695 66.799L172.929 67.1276C173.117 67.1589 173.273 67.2839 173.336 67.4715C173.398 67.6433 173.351 67.8465 173.21 67.9714L171.585 69.5805L171.975 71.8618ZM169.241 70.33L170.975 71.2522L170.648 69.2834L172.07 67.8774L170.101 67.5958L169.242 65.7988L169.242 65.8144L169.241 70.33Z" fill="currentColor"/>
<rect x="118.325" y="82.6279" width="52" height="3" rx="1.5" fill="currentColor"/>
<rect x="118.324" y="89.6279" width="52" height="3" rx="1.5" fill="currentColor"/>
<rect x="118.323" y="96.6279" width="36" height="3" rx="1.5" fill="currentColor"/>
</svg>
