<svg  viewBox="0 0 205 120" fill="none" xmlns="http://www.w3.org/2000/svg">
<path d="M79.6973 55.7793L82.2109 56.1484C82.4219 56.1836 82.5977 56.3242 82.668 56.5352C82.7383 56.7285 82.6855 56.957 82.5273 57.0977L80.6992 58.9082L81.1387 61.4746C81.1738 61.6855 81.0859 61.8965 80.9102 62.0195C80.7344 62.1602 80.5059 62.1602 80.3125 62.0723L78.0625 60.8594L75.7949 62.0723C75.6191 62.1602 75.373 62.1602 75.2148 62.0195C75.0391 61.8965 74.9512 61.6855 74.9863 61.4746L75.4082 58.9082L73.5801 57.0977C73.4219 56.957 73.3691 56.7285 73.4395 56.5352C73.5098 56.3242 73.6855 56.1836 73.8965 56.1484L76.4277 55.7793L77.5527 53.4414C77.6406 53.248 77.834 53.125 78.0625 53.125C78.2734 53.125 78.4668 53.248 78.5547 53.4414L79.6973 55.7793Z" fill="currentColor" class="star"/>
<path d="M91.6973 55.7793L94.2109 56.1484C94.4219 56.1836 94.5977 56.3242 94.668 56.5352C94.7383 56.7285 94.6855 56.957 94.5273 57.0977L92.6992 58.9082L93.1387 61.4746C93.1738 61.6855 93.0859 61.8965 92.9102 62.0195C92.7344 62.1602 92.5059 62.1602 92.3125 62.0723L90.0625 60.8594L87.7949 62.0723C87.6191 62.1602 87.373 62.1602 87.2148 62.0195C87.0391 61.8965 86.9512 61.6855 86.9863 61.4746L87.4082 58.9082L85.5801 57.0977C85.4219 56.957 85.3691 56.7285 85.4395 56.5352C85.5098 56.3242 85.6855 56.1836 85.8965 56.1484L88.4277 55.7793L89.5527 53.4414C89.6406 53.248 89.834 53.125 90.0625 53.125C90.2734 53.125 90.4668 53.248 90.5547 53.4414L91.6973 55.7793Z" fill="currentColor" class="star"/>
<path d="M103.697 55.7793L106.211 56.1484C106.422 56.1836 106.598 56.3242 106.668 56.5352C106.738 56.7285 106.686 56.957 106.527 57.0977L104.699 58.9082L105.139 61.4746C105.174 61.6855 105.086 61.8965 104.91 62.0195C104.734 62.1602 104.506 62.1602 104.312 62.0723L102.062 60.8594L99.7949 62.0723C99.6191 62.1602 99.373 62.1602 99.2148 62.0195C99.0391 61.8965 98.9512 61.6855 98.9863 61.4746L99.4082 58.9082L97.5801 57.0977C97.4219 56.957 97.3691 56.7285 97.4395 56.5352C97.5098 56.3242 97.6855 56.1836 97.8965 56.1484L100.428 55.7793L101.553 53.4414C101.641 53.248 101.834 53.125 102.062 53.125C102.273 53.125 102.467 53.248 102.555 53.4414L103.697 55.7793Z" fill="currentColor" class="star"/>
<path d="M115.697 55.7793L118.211 56.1484C118.422 56.1836 118.598 56.3242 118.668 56.5352C118.738 56.7285 118.686 56.957 118.527 57.0977L116.699 58.9082L117.139 61.4746C117.174 61.6855 117.086 61.8965 116.91 62.0195C116.734 62.1602 116.506 62.1602 116.312 62.0723L114.062 60.8594L111.795 62.0723C111.619 62.1602 111.373 62.1602 111.215 62.0195C111.039 61.8965 110.951 61.6855 110.986 61.4746L111.408 58.9082L109.58 57.0977C109.422 56.957 109.369 56.7285 109.439 56.5352C109.51 56.3242 109.686 56.1836 109.896 56.1484L112.428 55.7793L113.553 53.4414C113.641 53.248 113.834 53.125 114.062 53.125C114.273 53.125 114.467 53.248 114.555 53.4414L115.697 55.7793Z" fill="currentColor" class="star"/>
<path d="M129.139 61.4746C129.174 61.6855 129.086 61.8965 128.91 62.0195C128.734 62.1602 128.506 62.1602 128.312 62.0723L126.062 60.8594L123.795 62.0723C123.619 62.1602 123.373 62.1602 123.215 62.0195C123.039 61.8965 122.951 61.6855 122.986 61.4746L123.408 58.9082L121.58 57.0977C121.422 56.957 121.369 56.7285 121.439 56.5352C121.51 56.3242 121.686 56.1836 121.896 56.1484L124.428 55.7793L125.553 53.4414C125.641 53.248 125.834 53.125 126.062 53.125C126.273 53.125 126.467 53.248 126.555 53.4414L127.697 55.7793L130.211 56.1484C130.422 56.1836 130.598 56.3242 130.668 56.5352C130.738 56.7285 130.686 56.957 130.527 57.0977L128.699 58.9082L129.139 61.4746ZM126.062 59.752L128.014 60.7891L127.645 58.5742L129.244 56.9922L127.029 56.6758L126.062 54.6543V54.6719V59.752Z" fill="currentColor" class="star"/>
<circle cx="103" cy="31" r="15.5" fill="currentColor" stroke="currentColor"/>
<rect x="20" y="73" width="165" height="3" rx="1.5" fill="currentColor"/>
<rect x="20" y="80" width="165" height="3" rx="1.5" fill="currentColor"/>
<rect x="46" y="87" width="113" height="3" rx="1.5" fill="currentColor"/>
</svg>
