<svg width="250" height="97" viewBox="0 0 250 97" fill="none" xmlns="http://www.w3.org/2000/svg">
<path fill-rule="evenodd" clip-rule="evenodd" d="M4 0C1.79086 0 0 1.79086 0 4V41.082C0 43.2911 1.79086 45.082 4 45.082H41.082C43.2911 45.082 45.082 43.2911 45.082 41.082V4C45.082 1.79086 43.2911 0 41.082 0H4ZM55.23 51.2295C53.0208 51.2295 51.23 53.0203 51.23 55.2295V92.3115C51.23 94.5206 53.0208 96.3115 55.23 96.3115H92.312C94.5211 96.3115 96.312 94.5206 96.312 92.3115V55.2295C96.312 53.0204 94.5211 51.2295 92.312 51.2295H55.23ZM102.459 4C102.459 1.79086 104.25 0 106.459 0H143.541C145.751 0 147.541 1.79086 147.541 4V41.082C147.541 43.2911 145.751 45.082 143.541 45.082H106.459C104.25 45.082 102.459 43.2911 102.459 41.082V4ZM157.688 51.2295C155.479 51.2295 153.688 53.0203 153.688 55.2295V92.3115C153.688 94.5206 155.479 96.3115 157.688 96.3115H194.77C196.98 96.3115 198.77 94.5206 198.77 92.3115V55.2295C198.77 53.0204 196.98 51.2295 194.77 51.2295H157.688ZM51.23 4C51.23 1.79086 53.0208 0 55.23 0H92.312C94.5211 0 96.312 1.79086 96.312 4V41.082C96.312 43.2911 94.5211 45.082 92.312 45.082H55.23C53.0208 45.082 51.23 43.2911 51.23 41.082V4ZM4 51.2295C1.79086 51.2295 0 53.0203 0 55.2294V92.3114C0 94.5206 1.79086 96.3114 4 96.3114H41.082C43.2911 96.3114 45.082 94.5206 45.082 92.3114V55.2295C45.082 53.0203 43.2911 51.2295 41.082 51.2295H4ZM102.459 55.2295C102.459 53.0203 104.25 51.2295 106.459 51.2295H143.541C145.751 51.2295 147.541 53.0204 147.541 55.2295V92.3115C147.541 94.5206 145.751 96.3115 143.541 96.3115H106.459C104.25 96.3115 102.459 94.5206 102.459 92.3115V55.2295ZM157.688 0C155.479 0 153.688 1.79086 153.688 4V41.082C153.688 43.2911 155.479 45.082 157.688 45.082H194.77C196.98 45.082 198.77 43.2911 198.77 41.082V4C198.77 1.79086 196.98 0 194.77 0H157.688ZM204.918 55.2294C204.918 53.0203 206.709 51.2295 208.918 51.2295H246C248.209 51.2295 250 53.0203 250 55.2295V92.3114C250 94.5206 248.209 96.3114 246 96.3114H208.918C206.709 96.3114 204.918 94.5206 204.918 92.3114V55.2294ZM208.918 0C206.709 0 204.918 1.79086 204.918 4V41.082C204.918 43.2911 206.709 45.082 208.918 45.082H246C248.209 45.082 250 43.2911 250 41.082V4C250 1.79086 248.209 0 246 0H208.918Z" fill="currentColor"/>
</svg>
