<svg width="250" height="81" viewBox="0 0 250 81" fill="none" xmlns="http://www.w3.org/2000/svg">
<path d="M0 4C0 1.79087 1.79086 0 4 0H34.3833C36.5925 0 38.3833 1.79086 38.3833 4V34.3833C38.3833 36.5925 36.5925 38.3833 34.3833 38.3833H4C1.79087 38.3833 0 36.5925 0 34.3833V4Z" fill="currentColor"/>
<path d="M169.695 4C169.695 1.79087 171.486 0 173.695 0H204.078C206.287 0 208.078 1.79086 208.078 4V34.3833C208.078 36.5925 206.287 38.3833 204.078 38.3833H173.695C171.486 38.3833 169.695 36.5925 169.695 34.3833V4Z" fill="currentColor"/>
<path d="M0 46.1858C0 43.9767 1.79086 42.1858 4 42.1858H34.3833C36.5925 42.1858 38.3833 43.9767 38.3833 46.1858V76.5691C38.3833 78.7783 36.5925 80.5691 34.3833 80.5691H4C1.79087 80.5691 0 78.7783 0 76.5691V46.1858Z" fill="currentColor"/>
<path d="M169.695 46.1858C169.695 43.9767 171.486 42.1858 173.695 42.1858H204.078C206.287 42.1858 208.078 43.9767 208.078 46.1858V76.5691C208.078 78.7783 206.287 80.5691 204.078 80.5691H173.695C171.486 80.5691 169.695 78.7783 169.695 76.5691V46.1858Z" fill="currentColor"/>
<path d="M41.9219 4C41.9219 1.79087 43.7127 0 45.9219 0H76.3052C78.5144 0 80.3052 1.79086 80.3052 4V34.3833C80.3052 36.5925 78.5144 38.3833 76.3052 38.3833H45.9219C43.7127 38.3833 41.9219 36.5925 41.9219 34.3833V4Z" fill="currentColor"/>
<path d="M211.617 4C211.617 1.79087 213.408 0 215.617 0H246C248.209 0 250 1.79086 250 4V34.3833C250 36.5925 248.209 38.3833 246 38.3833H215.617C213.408 38.3833 211.617 36.5925 211.617 34.3833V4Z" fill="currentColor"/>
<path d="M41.9219 46.1858C41.9219 43.9767 43.7127 42.1858 45.9219 42.1858H76.3052C78.5144 42.1858 80.3052 43.9767 80.3052 46.1858V76.5691C80.3052 78.7783 78.5144 80.5691 76.3052 80.5691H45.9219C43.7127 80.5691 41.9219 78.7783 41.9219 76.5691V46.1858Z" fill="currentColor"/>
<path d="M211.617 46.1858C211.617 43.9767 213.408 42.1858 215.617 42.1858H246C248.209 42.1858 250 43.9767 250 46.1858V76.5691C250 78.7783 248.209 80.5691 246 80.5691H215.617C213.408 80.5691 211.617 78.7783 211.617 76.5691V46.1858Z" fill="currentColor"/>
<path d="M84.8477 4C84.8477 1.79086 86.6385 0 88.8477 0H161.655C163.864 0 165.655 1.79086 165.655 4V76.8071C165.655 79.0162 163.864 80.807 161.655 80.807H88.8477C86.6385 80.807 84.8477 79.0162 84.8477 76.807V4Z" fill="currentColor"/>
</svg>
