<svg width="250" height="44" viewBox="0 0 250 44" fill="none" xmlns="http://www.w3.org/2000/svg">
<path d="M7.93652 4C7.93652 1.79086 9.72738 0 11.9365 0H47.5873C49.7965 0 51.5873 1.79086 51.5873 4V39.6508C51.5873 41.8599 49.7965 43.6508 47.5873 43.6508H11.9365C9.72739 43.6508 7.93652 41.8599 7.93652 39.6508V4Z" fill="currentColor"/>
<path d="M103.174 4C103.174 1.79086 104.965 0 107.174 0H142.825C145.034 0 146.825 1.79086 146.825 4V39.6508C146.825 41.8599 145.034 43.6508 142.825 43.6508H107.174C104.965 43.6508 103.174 41.8599 103.174 39.6508V4Z" fill="currentColor"/>
<path d="M55.5557 4C55.5557 1.79086 57.3465 0 59.5557 0H95.2065C97.4156 0 99.2065 1.79086 99.2065 4V39.6508C99.2065 41.8599 97.4156 43.6508 95.2065 43.6508H59.5557C57.3465 43.6508 55.5557 41.8599 55.5557 39.6508V4Z" fill="currentColor"/>
<path d="M150.794 4C150.794 1.79086 152.585 0 154.794 0H190.445C192.654 0 194.445 1.79086 194.445 4V39.6508C194.445 41.8599 192.654 43.6508 190.445 43.6508H154.794C152.585 43.6508 150.794 41.8599 150.794 39.6508V4Z" fill="currentColor"/>
<path d="M198.413 4C198.413 1.79086 200.203 0 202.413 0H238.063C240.273 0 242.063 1.79086 242.063 4V39.6508C242.063 41.8599 240.273 43.6508 238.063 43.6508H202.413C200.203 43.6508 198.413 41.8599 198.413 39.6508V4Z" fill="currentColor"/>
<path fill-rule="evenodd" clip-rule="evenodd" d="M235.127 13.8889C234.575 13.8889 234.127 14.3366 234.127 14.8889V28.7619C234.127 29.3142 234.575 29.7619 235.127 29.7619H249C249.552 29.7619 250 29.3142 250 28.7619V14.8889C250 14.3366 249.552 13.8889 249 13.8889H235.127ZM244.03 20.4514C244.135 20.5569 244.135 20.7326 244.03 20.8381L241.757 23.1233C241.639 23.2287 241.464 23.2287 241.358 23.1233L241.089 22.8537C240.983 22.7483 240.983 22.5725 241.089 22.4553L242.893 20.6389L241.089 18.8342C240.983 18.717 240.983 18.5412 241.089 18.4358L241.358 18.1662C241.464 18.0608 241.639 18.0608 241.757 18.1662L244.03 20.4514Z" fill="#8F90A6"/>
<path fill-rule="evenodd" clip-rule="evenodd" d="M1 13.8889C0.447715 13.8889 0 14.3366 0 14.8889V28.7619C0 29.3142 0.447716 29.7619 1 29.7619H14.873C15.4253 29.7619 15.873 29.3142 15.873 28.7619V14.8889C15.873 14.3366 15.4253 13.8889 14.873 13.8889H1ZM6.45995 21.8381C6.35448 21.7326 6.35448 21.5569 6.45995 21.4514L8.73338 19.1662C8.85057 19.0608 9.02635 19.0608 9.13182 19.1662L9.40135 19.4358C9.50682 19.5412 9.50682 19.717 9.40135 19.8342L7.59666 21.6389L9.40135 23.4553C9.50682 23.5725 9.50682 23.7483 9.40135 23.8537L9.13182 24.1233C9.02635 24.2287 8.85057 24.2287 8.73338 24.1233L6.45995 21.8381Z" fill="#8F90A6"/>
</svg>
