<svg  viewBox="0 0 205 120" fill="none" xmlns="http://www.w3.org/2000/svg">
<rect x="16" y="15" width="81" height="90" rx="6" fill="#EBEDF0"/>
<path d="M36.9531 60.3594L39.1875 60.6875C39.375 60.7188 39.5312 60.8438 39.5938 61.0312C39.6562 61.2031 39.6094 61.4062 39.4688 61.5312L37.8438 63.1406L38.2344 65.4219C38.2656 65.6094 38.1875 65.7969 38.0312 65.9062C37.875 66.0312 37.6719 66.0312 37.5 65.9531L35.5 64.875L33.4844 65.9531C33.3281 66.0312 33.1094 66.0312 32.9688 65.9062C32.8125 65.7969 32.7344 65.6094 32.7656 65.4219L33.1406 63.1406L31.5156 61.5312C31.375 61.4062 31.3281 61.2031 31.3906 61.0312C31.4531 60.8438 31.6094 60.7188 31.7969 60.6875L34.0469 60.3594L35.0469 58.2812C35.125 58.1094 35.2969 58 35.5 58C35.6875 58 35.8594 58.1094 35.9375 58.2812L36.9531 60.3594Z" fill="currentColor" class="star"/>
<path d="M46.9531 60.3594L49.1875 60.6875C49.375 60.7188 49.5312 60.8438 49.5938 61.0312C49.6562 61.2031 49.6094 61.4062 49.4688 61.5312L47.8438 63.1406L48.2344 65.4219C48.2656 65.6094 48.1875 65.7969 48.0312 65.9062C47.875 66.0312 47.6719 66.0312 47.5 65.9531L45.5 64.875L43.4844 65.9531C43.3281 66.0312 43.1094 66.0312 42.9688 65.9062C42.8125 65.7969 42.7344 65.6094 42.7656 65.4219L43.1406 63.1406L41.5156 61.5312C41.375 61.4062 41.3281 61.2031 41.3906 61.0312C41.4531 60.8438 41.6094 60.7188 41.7969 60.6875L44.0469 60.3594L45.0469 58.2812C45.125 58.1094 45.2969 58 45.5 58C45.6875 58 45.8594 58.1094 45.9375 58.2812L46.9531 60.3594Z" fill="currentColor" class="star"/>
<path d="M56.9531 60.3594L59.1875 60.6875C59.375 60.7188 59.5312 60.8438 59.5938 61.0312C59.6562 61.2031 59.6094 61.4062 59.4688 61.5312L57.8438 63.1406L58.2344 65.4219C58.2656 65.6094 58.1875 65.7969 58.0312 65.9062C57.875 66.0312 57.6719 66.0312 57.5 65.9531L55.5 64.875L53.4844 65.9531C53.3281 66.0312 53.1094 66.0312 52.9688 65.9062C52.8125 65.7969 52.7344 65.6094 52.7656 65.4219L53.1406 63.1406L51.5156 61.5312C51.375 61.4062 51.3281 61.2031 51.3906 61.0312C51.4531 60.8438 51.6094 60.7188 51.7969 60.6875L54.0469 60.3594L55.0469 58.2812C55.125 58.1094 55.2969 58 55.5 58C55.6875 58 55.8594 58.1094 55.9375 58.2812L56.9531 60.3594Z" fill="currentColor" class="star"/>
<path d="M66.9531 60.3594L69.1875 60.6875C69.375 60.7188 69.5312 60.8438 69.5938 61.0312C69.6562 61.2031 69.6094 61.4062 69.4688 61.5312L67.8438 63.1406L68.2344 65.4219C68.2656 65.6094 68.1875 65.7969 68.0312 65.9062C67.875 66.0312 67.6719 66.0312 67.5 65.9531L65.5 64.875L63.4844 65.9531C63.3281 66.0312 63.1094 66.0312 62.9688 65.9062C62.8125 65.7969 62.7344 65.6094 62.7656 65.4219L63.1406 63.1406L61.5156 61.5312C61.375 61.4062 61.3281 61.2031 61.3906 61.0312C61.4531 60.8438 61.6094 60.7188 61.7969 60.6875L64.0469 60.3594L65.0469 58.2812C65.125 58.1094 65.2969 58 65.5 58C65.6875 58 65.8594 58.1094 65.9375 58.2812L66.9531 60.3594Z" fill="currentColor" class="star"/>
<path d="M78.2344 65.4219C78.2656 65.6094 78.1875 65.7969 78.0312 65.9062C77.875 66.0312 77.6719 66.0312 77.5 65.9531L75.5 64.875L73.4844 65.9531C73.3281 66.0312 73.1094 66.0312 72.9688 65.9062C72.8125 65.7969 72.7344 65.6094 72.7656 65.4219L73.1406 63.1406L71.5156 61.5312C71.375 61.4062 71.3281 61.2031 71.3906 61.0312C71.4531 60.8438 71.6094 60.7188 71.7969 60.6875L74.0469 60.3594L75.0469 58.2812C75.125 58.1094 75.2969 58 75.5 58C75.6875 58 75.8594 58.1094 75.9375 58.2812L76.9531 60.3594L79.1875 60.6875C79.375 60.7188 79.5312 60.8438 79.5938 61.0312C79.6562 61.2031 79.6094 61.4062 79.4688 61.5312L77.8438 63.1406L78.2344 65.4219ZM75.5 63.8906L77.2344 64.8125L76.9062 62.8438L78.3281 61.4375L76.3594 61.1562L75.5 59.3594V59.375V63.8906Z" fill="currentColor" class="star"/>
<circle cx="56" cy="39" r="11.5" fill="currentColor" stroke="currentColor"/>
<rect x="26" y="75" width="61" height="3" rx="1.5" fill="currentColor"/>
<rect x="26" y="82" width="61" height="3" rx="1.5" fill="currentColor"/>
<rect x="35" y="89" width="43" height="3" rx="1.5" fill="currentColor"/>
<rect x="108" y="15" width="81" height="90" rx="6" fill="#EBEDF0"/>
<path d="M128.953 60.3594L131.188 60.6875C131.375 60.7188 131.531 60.8438 131.594 61.0312C131.656 61.2031 131.609 61.4062 131.469 61.5312L129.844 63.1406L130.234 65.4219C130.266 65.6094 130.188 65.7969 130.031 65.9062C129.875 66.0312 129.672 66.0312 129.5 65.9531L127.5 64.875L125.484 65.9531C125.328 66.0312 125.109 66.0312 124.969 65.9062C124.812 65.7969 124.734 65.6094 124.766 65.4219L125.141 63.1406L123.516 61.5312C123.375 61.4062 123.328 61.2031 123.391 61.0312C123.453 60.8438 123.609 60.7188 123.797 60.6875L126.047 60.3594L127.047 58.2812C127.125 58.1094 127.297 58 127.5 58C127.688 58 127.859 58.1094 127.938 58.2812L128.953 60.3594Z" fill="currentColor" class="star"/>
<path d="M138.953 60.3594L141.188 60.6875C141.375 60.7188 141.531 60.8438 141.594 61.0312C141.656 61.2031 141.609 61.4062 141.469 61.5312L139.844 63.1406L140.234 65.4219C140.266 65.6094 140.188 65.7969 140.031 65.9062C139.875 66.0312 139.672 66.0312 139.5 65.9531L137.5 64.875L135.484 65.9531C135.328 66.0312 135.109 66.0312 134.969 65.9062C134.812 65.7969 134.734 65.6094 134.766 65.4219L135.141 63.1406L133.516 61.5312C133.375 61.4062 133.328 61.2031 133.391 61.0312C133.453 60.8438 133.609 60.7188 133.797 60.6875L136.047 60.3594L137.047 58.2812C137.125 58.1094 137.297 58 137.5 58C137.688 58 137.859 58.1094 137.938 58.2812L138.953 60.3594Z" fill="currentColor" class="star"/>
<path d="M148.953 60.3594L151.188 60.6875C151.375 60.7188 151.531 60.8438 151.594 61.0312C151.656 61.2031 151.609 61.4062 151.469 61.5312L149.844 63.1406L150.234 65.4219C150.266 65.6094 150.188 65.7969 150.031 65.9062C149.875 66.0312 149.672 66.0312 149.5 65.9531L147.5 64.875L145.484 65.9531C145.328 66.0312 145.109 66.0312 144.969 65.9062C144.812 65.7969 144.734 65.6094 144.766 65.4219L145.141 63.1406L143.516 61.5312C143.375 61.4062 143.328 61.2031 143.391 61.0312C143.453 60.8438 143.609 60.7188 143.797 60.6875L146.047 60.3594L147.047 58.2812C147.125 58.1094 147.297 58 147.5 58C147.688 58 147.859 58.1094 147.938 58.2812L148.953 60.3594Z" fill="currentColor" class="star"/>
<path d="M158.953 60.3594L161.188 60.6875C161.375 60.7188 161.531 60.8438 161.594 61.0312C161.656 61.2031 161.609 61.4062 161.469 61.5312L159.844 63.1406L160.234 65.4219C160.266 65.6094 160.188 65.7969 160.031 65.9062C159.875 66.0312 159.672 66.0312 159.5 65.9531L157.5 64.875L155.484 65.9531C155.328 66.0312 155.109 66.0312 154.969 65.9062C154.812 65.7969 154.734 65.6094 154.766 65.4219L155.141 63.1406L153.516 61.5312C153.375 61.4062 153.328 61.2031 153.391 61.0312C153.453 60.8438 153.609 60.7188 153.797 60.6875L156.047 60.3594L157.047 58.2812C157.125 58.1094 157.297 58 157.5 58C157.688 58 157.859 58.1094 157.938 58.2812L158.953 60.3594Z" fill="currentColor" class="star"/>
<path d="M170.234 65.4219C170.266 65.6094 170.188 65.7969 170.031 65.9062C169.875 66.0312 169.672 66.0312 169.5 65.9531L167.5 64.875L165.484 65.9531C165.328 66.0312 165.109 66.0312 164.969 65.9062C164.812 65.7969 164.734 65.6094 164.766 65.4219L165.141 63.1406L163.516 61.5312C163.375 61.4062 163.328 61.2031 163.391 61.0312C163.453 60.8438 163.609 60.7188 163.797 60.6875L166.047 60.3594L167.047 58.2812C167.125 58.1094 167.297 58 167.5 58C167.688 58 167.859 58.1094 167.938 58.2812L168.953 60.3594L171.188 60.6875C171.375 60.7188 171.531 60.8438 171.594 61.0312C171.656 61.2031 171.609 61.4062 171.469 61.5312L169.844 63.1406L170.234 65.4219ZM167.5 63.8906L169.234 64.8125L168.906 62.8438L170.328 61.4375L168.359 61.1562L167.5 59.3594V59.375V63.8906Z" fill="currentColor" class="star"/>
<circle cx="148" cy="39" r="11.5" fill="currentColor" stroke="currentColor"/>
<rect x="118" y="75" width="61" height="3" rx="1.5" fill="currentColor"/>
<rect x="118" y="82" width="61" height="3" rx="1.5" fill="currentColor"/>
<rect x="127" y="89" width="43" height="3" rx="1.5" fill="currentColor"/>
</svg>
