<svg  viewBox="0 0 205 120" fill="none" xmlns="http://www.w3.org/2000/svg">
<path d="M26.6973 95.7793L29.2109 96.1484C29.4219 96.1836 29.5977 96.3242 29.668 96.5352C29.7383 96.7285 29.6855 96.957 29.5273 97.0977L27.6992 98.9082L28.1387 101.475C28.1738 101.686 28.0859 101.896 27.9102 102.02C27.7344 102.16 27.5059 102.16 27.3125 102.072L25.0625 100.859L22.7949 102.072C22.6191 102.16 22.373 102.16 22.2148 102.02C22.0391 101.896 21.9512 101.686 21.9863 101.475L22.4082 98.9082L20.5801 97.0977C20.4219 96.957 20.3691 96.7285 20.4395 96.5352C20.5098 96.3242 20.6855 96.1836 20.8965 96.1484L23.4277 95.7793L24.5527 93.4414C24.6406 93.248 24.834 93.125 25.0625 93.125C25.2734 93.125 25.4668 93.248 25.5547 93.4414L26.6973 95.7793Z" fill="currentColor" class="star"/>
<path d="M38.6973 95.7793L41.2109 96.1484C41.4219 96.1836 41.5977 96.3242 41.668 96.5352C41.7383 96.7285 41.6855 96.957 41.5273 97.0977L39.6992 98.9082L40.1387 101.475C40.1738 101.686 40.0859 101.896 39.9102 102.02C39.7344 102.16 39.5059 102.16 39.3125 102.072L37.0625 100.859L34.7949 102.072C34.6191 102.16 34.373 102.16 34.2148 102.02C34.0391 101.896 33.9512 101.686 33.9863 101.475L34.4082 98.9082L32.5801 97.0977C32.4219 96.957 32.3691 96.7285 32.4395 96.5352C32.5098 96.3242 32.6855 96.1836 32.8965 96.1484L35.4277 95.7793L36.5527 93.4414C36.6406 93.248 36.834 93.125 37.0625 93.125C37.2734 93.125 37.4668 93.248 37.5547 93.4414L38.6973 95.7793Z" fill="currentColor" class="star"/>
<path d="M50.6973 95.7793L53.2109 96.1484C53.4219 96.1836 53.5977 96.3242 53.668 96.5352C53.7383 96.7285 53.6855 96.957 53.5273 97.0977L51.6992 98.9082L52.1387 101.475C52.1738 101.686 52.0859 101.896 51.9102 102.02C51.7344 102.16 51.5059 102.16 51.3125 102.072L49.0625 100.859L46.7949 102.072C46.6191 102.16 46.373 102.16 46.2148 102.02C46.0391 101.896 45.9512 101.686 45.9863 101.475L46.4082 98.9082L44.5801 97.0977C44.4219 96.957 44.3691 96.7285 44.4395 96.5352C44.5098 96.3242 44.6855 96.1836 44.8965 96.1484L47.4277 95.7793L48.5527 93.4414C48.6406 93.248 48.834 93.125 49.0625 93.125C49.2734 93.125 49.4668 93.248 49.5547 93.4414L50.6973 95.7793Z" fill="currentColor" class="star"/>
<path d="M62.6973 95.7793L65.2109 96.1484C65.4219 96.1836 65.5977 96.3242 65.668 96.5352C65.7383 96.7285 65.6855 96.957 65.5273 97.0977L63.6992 98.9082L64.1387 101.475C64.1738 101.686 64.0859 101.896 63.9102 102.02C63.7344 102.16 63.5059 102.16 63.3125 102.072L61.0625 100.859L58.7949 102.072C58.6191 102.16 58.373 102.16 58.2148 102.02C58.0391 101.896 57.9512 101.686 57.9863 101.475L58.4082 98.9082L56.5801 97.0977C56.4219 96.957 56.3691 96.7285 56.4395 96.5352C56.5098 96.3242 56.6855 96.1836 56.8965 96.1484L59.4277 95.7793L60.5527 93.4414C60.6406 93.248 60.834 93.125 61.0625 93.125C61.2734 93.125 61.4668 93.248 61.5547 93.4414L62.6973 95.7793Z" fill="currentColor" class="star"/>
<path d="M76.1387 101.475C76.1738 101.686 76.0859 101.896 75.9102 102.02C75.7344 102.16 75.5059 102.16 75.3125 102.072L73.0625 100.859L70.7949 102.072C70.6191 102.16 70.373 102.16 70.2148 102.02C70.0391 101.896 69.9512 101.686 69.9863 101.475L70.4082 98.9082L68.5801 97.0977C68.4219 96.957 68.3691 96.7285 68.4395 96.5352C68.5098 96.3242 68.6855 96.1836 68.8965 96.1484L71.4277 95.7793L72.5527 93.4414C72.6406 93.248 72.834 93.125 73.0625 93.125C73.2734 93.125 73.4668 93.248 73.5547 93.4414L74.6973 95.7793L77.2109 96.1484C77.4219 96.1836 77.5977 96.3242 77.668 96.5352C77.7383 96.7285 77.6855 96.957 77.5273 97.0977L75.6992 98.9082L76.1387 101.475ZM73.0625 99.752L75.0137 100.789L74.6445 98.5742L76.2441 96.9922L74.0293 96.6758L73.0625 94.6543V94.6719V99.752Z" fill="currentColor" class="star"/>
<circle cx="36" cy="37" r="16" fill="currentColor"/>
<rect x="59" y="29" width="81" height="4" rx="2" fill="currentColor"/>
<rect x="59" y="42" width="52" height="4" rx="2" fill="currentColor"/>
<rect x="20" y="63" width="165" height="3" rx="1.5" fill="currentColor"/>
<rect x="20" y="70" width="165" height="3" rx="1.5" fill="currentColor"/>
<rect x="20" y="77" width="113" height="3" rx="1.5" fill="currentColor"/>
</svg>
