<svg viewBox="0 0 205 120" fill="none" xmlns="http://www.w3.org/2000/svg">
<rect x="180" y="28" width="64" height="155" rx="6" transform="rotate(90 180 28)" fill="#EBEDF0"/>
<rect x="36" y="35" width="53.7589" height="4" rx="2" fill="currentColor"/>
<path d="M40.4648 45.5195L42.1406 45.7656C42.2812 45.7891 42.3984 45.8828 42.4453 46.0234C42.4922 46.1523 42.457 46.3047 42.3516 46.3984L41.1328 47.6055L41.4258 49.3164C41.4492 49.457 41.3906 49.5977 41.2734 49.6797C41.1562 49.7734 41.0039 49.7734 40.875 49.7148L39.375 48.9062L37.8633 49.7148C37.7461 49.7734 37.582 49.7734 37.4766 49.6797C37.3594 49.5977 37.3008 49.457 37.3242 49.3164L37.6055 47.6055L36.3867 46.3984C36.2812 46.3047 36.2461 46.1523 36.293 46.0234C36.3398 45.8828 36.457 45.7891 36.5977 45.7656L38.2852 45.5195L39.0352 43.9609C39.0938 43.832 39.2227 43.75 39.375 43.75C39.5156 43.75 39.6445 43.832 39.7031 43.9609L40.4648 45.5195Z" fill="currentColor" class="star"/>
<path d="M48.4648 45.5195L50.1406 45.7656C50.2812 45.7891 50.3984 45.8828 50.4453 46.0234C50.4922 46.1523 50.457 46.3047 50.3516 46.3984L49.1328 47.6055L49.4258 49.3164C49.4492 49.457 49.3906 49.5977 49.2734 49.6797C49.1562 49.7734 49.0039 49.7734 48.875 49.7148L47.375 48.9062L45.8633 49.7148C45.7461 49.7734 45.582 49.7734 45.4766 49.6797C45.3594 49.5977 45.3008 49.457 45.3242 49.3164L45.6055 47.6055L44.3867 46.3984C44.2812 46.3047 44.2461 46.1523 44.293 46.0234C44.3398 45.8828 44.457 45.7891 44.5977 45.7656L46.2852 45.5195L47.0352 43.9609C47.0938 43.832 47.2227 43.75 47.375 43.75C47.5156 43.75 47.6445 43.832 47.7031 43.9609L48.4648 45.5195Z" fill="currentColor" class="star"/>
<path d="M56.4648 45.5195L58.1406 45.7656C58.2812 45.7891 58.3984 45.8828 58.4453 46.0234C58.4922 46.1523 58.457 46.3047 58.3516 46.3984L57.1328 47.6055L57.4258 49.3164C57.4492 49.457 57.3906 49.5977 57.2734 49.6797C57.1562 49.7734 57.0039 49.7734 56.875 49.7148L55.375 48.9062L53.8633 49.7148C53.7461 49.7734 53.582 49.7734 53.4766 49.6797C53.3594 49.5977 53.3008 49.457 53.3242 49.3164L53.6055 47.6055L52.3867 46.3984C52.2812 46.3047 52.2461 46.1523 52.293 46.0234C52.3398 45.8828 52.457 45.7891 52.5977 45.7656L54.2852 45.5195L55.0352 43.9609C55.0938 43.832 55.2227 43.75 55.375 43.75C55.5156 43.75 55.6445 43.832 55.7031 43.9609L56.4648 45.5195Z" fill="currentColor" class="star"/>
<path d="M64.4648 45.5195L66.1406 45.7656C66.2812 45.7891 66.3984 45.8828 66.4453 46.0234C66.4922 46.1523 66.457 46.3047 66.3516 46.3984L65.1328 47.6055L65.4258 49.3164C65.4492 49.457 65.3906 49.5977 65.2734 49.6797C65.1562 49.7734 65.0039 49.7734 64.875 49.7148L63.375 48.9062L61.8633 49.7148C61.7461 49.7734 61.582 49.7734 61.4766 49.6797C61.3594 49.5977 61.3008 49.457 61.3242 49.3164L61.6055 47.6055L60.3867 46.3984C60.2812 46.3047 60.2461 46.1523 60.293 46.0234C60.3398 45.8828 60.457 45.7891 60.5977 45.7656L62.2852 45.5195L63.0352 43.9609C63.0938 43.832 63.2227 43.75 63.375 43.75C63.5156 43.75 63.6445 43.832 63.7031 43.9609L64.4648 45.5195Z" fill="currentColor" class="star"/>
<path d="M73.4258 49.3164C73.4492 49.457 73.3906 49.5977 73.2734 49.6797C73.1562 49.7734 73.0039 49.7734 72.875 49.7148L71.375 48.9062L69.8633 49.7148C69.7461 49.7734 69.582 49.7734 69.4766 49.6797C69.3594 49.5977 69.3008 49.457 69.3242 49.3164L69.6055 47.6055L68.3867 46.3984C68.2812 46.3047 68.2461 46.1523 68.293 46.0234C68.3398 45.8828 68.457 45.7891 68.5977 45.7656L70.2852 45.5195L71.0352 43.9609C71.0938 43.832 71.2227 43.75 71.375 43.75C71.5156 43.75 71.6445 43.832 71.7031 43.9609L72.4648 45.5195L74.1406 45.7656C74.2812 45.7891 74.3984 45.8828 74.4453 46.0234C74.4922 46.1523 74.457 46.3047 74.3516 46.3984L73.1328 47.6055L73.4258 49.3164ZM71.375 48.168L72.6758 48.8594L72.4297 47.3828L73.4961 46.3281L72.0195 46.1172L71.375 44.7695V44.7812V48.168Z" fill="currentColor" class="star"/>
<rect x="36" y="57" width="129" height="3" rx="1.5" fill="currentColor"/>
<rect x="36" y="64" width="111" height="3" rx="1.5" fill="currentColor"/>
<path d="M36 73C36 71.8954 36.8954 71 38 71H49C50.1046 71 51 71.8954 51 73V83C51 84.1046 50.1046 85 49 85H38C36.8954 85 36 84.1046 36 83V73Z" fill="currentColor"/>
<path d="M56 73C56 71.8954 56.8954 71 58 71H69C70.1046 71 71 71.8954 71 73V83C71 84.1046 70.1046 85 69 85H58C56.8954 85 56 84.1046 56 83V73Z" fill="currentColor"/>
<path d="M76 73C76 71.8954 76.8954 71 78 71H89C90.1046 71 91 71.8954 91 73V83C91 84.1046 90.1046 85 89 85H78C76.8954 85 76 84.1046 76 83V73Z" fill="currentColor"/>
</svg>
