<svg id="Capa_1" enable-background="new 0 0 512 512" viewBox="0 0 512 512" xmlns="http://www.w3.org/2000/svg"><g><path fill="#3B82F6" d="m386.909 94.709-2.69 34.123c-.41 5.2 1.91 10.251 6.14 13.321 4.23 3.077 9.762 3.702 14.56 1.72l31.62-13.111 31.62 13.111c4.83 2 10.34 1.34 14.56-1.72 4.23-3.07 6.55-8.121 6.14-13.321l-2.69-34.123 22.23-26.033c3.39-3.97 4.48-9.411 2.87-14.381-1.62-4.96-5.69-8.731-10.77-9.951l-33.29-7.991-17.88-29.193c-2.72-4.45-7.57-7.16-12.79-7.16s-10.06 2.71-12.79 7.161l-17.88 29.193-33.29 7.991c-5.07 1.22-9.15 4.99-10.76 9.951-1.62 4.97-.53 10.411 2.86 14.381z"/><path fill="#3B82F6" d="m206.37 94.709-2.69 34.123c-.41 5.2 1.91 10.251 6.14 13.321 4.22 3.06 9.73 3.72 14.56 1.72l31.62-13.11 31.62 13.111c4.798 1.983 10.337 1.356 14.56-1.72 4.23-3.07 6.55-8.121 6.14-13.321l-2.69-34.123 22.23-26.033c3.39-3.97 4.48-9.411 2.86-14.381-1.61-4.96-5.69-8.731-10.76-9.951l-33.29-7.991-17.88-29.193c-2.73-4.451-7.571-7.161-12.79-7.161-5.22 0-10.06 2.71-12.79 7.161l-17.88 29.193-33.29 7.991c-5.07 1.22-9.15 4.99-10.76 9.951-1.62 4.97-.53 10.411 2.86 14.381z"/><path fill="#3B82F6" d="m25.828 94.709-2.69 34.123c-.41 5.2 1.91 10.251 6.14 13.321 4.22 3.06 9.73 3.72 14.56 1.72l31.62-13.111 31.62 13.111c4.798 1.983 10.337 1.356 14.56-1.72 4.23-3.07 6.55-8.121 6.14-13.321l-2.69-34.123 22.23-26.033c3.39-3.97 4.48-9.411 2.86-14.381-1.61-4.96-5.69-8.731-10.76-9.951l-33.29-7.991-17.88-29.192c-2.73-4.451-7.571-7.161-12.79-7.161-5.22 0-10.06 2.71-12.79 7.161l-17.88 29.193-33.29 7.991c-5.07 1.22-9.15 4.99-10.76 9.951-1.62 4.97-.53 10.411 2.86 14.381z"/><path fill="#3B82F6" d="m468.329 176.017h-424.659c-24.08 0-43.67 19.592-43.67 43.674v176.677c0 24.082 19.59 43.674 43.67 43.674h143.45l57.51 66.796c5.65 6.882 17.089 6.881 22.739 0l57.51-66.796h143.45c24.08 0 43.67-19.592 43.67-43.674v-176.677c0-24.082-19.59-43.674-43.67-43.674zm-176.329 171.306c-8.28 0-15-6.721-15-15.001 0-8.291 6.72-15.001 15-15.001h115c8.28 0 15 6.711 15 15.001 0 8.281-6.72 15.001-15 15.001zm115-60.005h-302c-8.28 0-15-6.721-15-15.001 0-8.281 6.72-15.001 15-15.001h302c8.28 0 15 6.721 15 15.001s-6.72 15.001-15 15.001zm-172 45.004c0 8.281-6.72 15.001-15 15.001h-115c-8.28 0-15-6.721-15-15.001 0-8.291 6.72-15.001 15-15.001h115c8.28 0 15 6.71 15 15.001z"/></g></svg>