<svg width="26" height="26" viewBox="0 0 26 26" fill="none" xmlns="http://www.w3.org/2000/svg">
<path d="M17.6211 19.0938C17.2008 19.0938 16.8594 19.4352 16.8594 19.8555C16.8594 20.2757 17.2008 20.6172 17.6211 20.6172C18.0414 20.6172 18.3828 20.2757 18.3828 19.8555C18.3828 19.4352 18.0414 19.0938 17.6211 19.0938Z" fill="#3B82F6"/>
<path d="M13.0508 9.95312C12.6305 9.95312 12.2891 10.2946 12.2891 10.7148C12.2891 11.1351 12.6305 11.4766 13.0508 11.4766C13.471 11.4766 13.8125 11.1351 13.8125 10.7148C13.8125 10.2946 13.471 9.95312 13.0508 9.95312Z" fill="#3B82F6"/>
<path d="M25.4444 11.1418C25.3566 10.8785 25.1312 10.6836 24.8574 10.6337C24.5911 10.5846 24.3055 10.688 24.1299 10.9037C23.8353 11.2675 23.4061 11.4766 22.9531 11.4766C22.1133 11.4766 21.4297 10.7929 21.4297 9.95312C21.4297 9.72994 21.4847 9.50605 21.5926 9.28738C21.7362 8.99432 21.6782 8.64246 21.4476 8.41186C21.217 8.1805 20.8651 8.12398 20.572 8.26683C19.5299 8.78003 18.3836 7.96996 18.3828 6.90625C18.3828 6.45323 18.5918 6.02403 18.9556 5.72945C19.1713 5.55389 19.2747 5.27495 19.2256 5.00195C19.1758 4.72819 18.9809 4.50282 18.7175 4.41502C17.6144 4.0461 16.477 3.85938 15.3359 3.85938C9.45567 3.85938 4.67188 8.64317 4.67188 14.5234C4.67188 20.4037 9.45567 25.1875 15.3359 25.1875C21.2162 25.1875 26 20.4037 26 14.5234C26 13.3823 25.8133 12.245 25.4444 11.1418ZM8.48047 16.0469C8.0598 16.0469 7.71875 15.7058 7.71875 15.2852C7.71875 14.8645 8.0598 14.5234 8.48047 14.5234C8.90114 14.5234 9.24219 14.8645 9.24219 15.2852C9.24219 15.7058 8.90114 16.0469 8.48047 16.0469ZM12.2891 19.0938C11.4492 19.0938 10.7656 18.4101 10.7656 17.5703C10.7656 16.7305 11.4492 16.0469 12.2891 16.0469C13.1289 16.0469 13.8125 16.7305 13.8125 17.5703C13.8125 18.4101 13.1289 19.0938 12.2891 19.0938ZM13.0508 13C11.7907 13 10.7656 11.9749 10.7656 10.7148C10.7656 9.45476 11.7907 8.42969 13.0508 8.42969C14.3109 8.42969 15.3359 9.45476 15.3359 10.7148C15.3359 11.9749 14.3109 13 13.0508 13ZM17.6211 22.1406C16.361 22.1406 15.3359 21.1156 15.3359 19.8555C15.3359 18.5954 16.361 17.5703 17.6211 17.5703C18.8812 17.5703 19.9062 18.5954 19.9062 19.8555C19.9062 21.1156 18.8812 22.1406 17.6211 22.1406ZM19.1445 14.5234C18.7239 14.5234 18.3828 14.1824 18.3828 13.7617C18.3828 13.341 18.7239 13 19.1445 13C19.5652 13 19.9062 13.341 19.9062 13.7617C19.9062 14.1824 19.5652 14.5234 19.1445 14.5234Z" fill="#3B82F6"/>
<path d="M5.33203 3.85938C4.91177 3.85938 4.57031 4.20083 4.57031 4.62109C4.57031 5.04136 4.91177 5.38281 5.33203 5.38281C5.7523 5.38281 6.09375 5.04136 6.09375 4.62109C6.09375 4.20083 5.7523 3.85938 5.33203 3.85938Z" fill="#3B82F6"/>
<path d="M15.1665 2.33939C13.6041 1.35703 11.7875 0.8125 9.90223 0.8125C7.74595 0.8125 5.75441 1.51323 4.12646 2.68795C4.47741 2.46832 4.88829 2.33594 5.33191 2.33594C6.592 2.33594 7.61707 3.36101 7.61707 4.62109C7.61707 4.77212 7.60062 4.91913 7.57253 5.06203C9.65162 3.37624 12.291 2.35529 15.1665 2.33939Z" fill="#3B82F6"/>
<path d="M5.7685 6.86213C5.62697 6.88965 5.48148 6.9062 5.33203 6.9062C4.07195 6.9062 3.04688 5.88113 3.04688 4.62105C3.04688 3.92199 3.36898 3.30317 3.86501 2.88367C1.51953 4.69615 0 7.52817 0 10.7148C0 13.7896 1.39577 16.5978 3.70541 18.4423C3.28539 17.2105 3.04688 15.8956 3.04688 14.5234C3.04688 11.6219 4.06905 8.95665 5.7685 6.86213ZM2.28516 9.95308C1.86448 9.95308 1.52344 9.61203 1.52344 9.19136C1.52344 8.77069 1.86448 8.42964 2.28516 8.42964C2.70583 8.42964 3.04688 8.77069 3.04688 9.19136C3.04688 9.61203 2.70583 9.95308 2.28516 9.95308Z" fill="#3B82F6"/>
</svg>
