<svg width="30" height="30" viewBox="0 0 30 30" fill="none" xmlns="http://www.w3.org/2000/svg">
<path d="M12.6943 14.9973C12.692 16.2711 13.7235 17.3061 14.9973 17.3072C16.2711 17.3072 17.3049 16.2746 17.3072 15.0031C17.3095 13.727 16.2769 12.6943 15.0043 12.6943C13.7281 12.692 12.6943 13.7212 12.6943 14.9973Z" fill="#3B82F6"/>
<path d="M15.6608 15.6211C15.6608 15.6211 15.6619 15.6188 15.6619 15.6165C16.1119 15.1665 16.9322 13.6377 16.4926 13.2477C16.4926 13.2477 4.2508 3.47851 3.88274 3.84657C3.51468 4.21463 13.247 16.4922 13.247 16.4922C13.6404 16.9295 15.2119 16.0688 15.6608 15.6211Z" fill="#3B82F6"/>
<path d="M14.9992 4.61751C16.2743 4.61751 17.3079 3.58385 17.3079 2.30876C17.3079 1.03367 16.2743 0 14.9992 0C13.7241 0 12.6904 1.03367 12.6904 2.30876C12.6904 3.58385 13.7241 4.61751 14.9992 4.61751Z" fill="#3B82F6"/>
<path d="M19.9469 2.07449C19.1531 3.40597 20.4038 4.22171 20.7811 4.42824C24.5241 6.47739 27.0728 10.4396 27.0728 15.0005C27.0728 21.658 21.658 27.0728 15.0006 27.0728C8.34314 27.0728 2.92604 21.658 2.92604 15.0005C2.92604 13.4706 3.21795 12.0076 3.74178 10.6622C3.81101 10.488 4.46752 9.32959 3.18103 8.51962C2.29953 7.9658 1.43648 8.59116 1.26341 8.98576C0.45229 10.8272 0 12.8602 0 15.0005C0 23.2848 6.71513 30 14.9994 30C23.2837 30 29.9988 23.2848 29.9988 15.0005C29.9988 9.10114 26.5847 4.0071 21.6303 1.56335C21.5265 1.51143 20.5007 1.14337 19.9469 2.07449Z" fill="#3B82F6"/>
</svg>
