<svg width="28" height="28" viewBox="0 0 28 28" fill="none" xmlns="http://www.w3.org/2000/svg">
<g clip-path="url(#clip0_129_1491)">
<path d="M14.2756 27.9999C14.1829 27.9999 14.0901 27.9999 13.9968 27.9995C11.802 28.0048 9.77411 27.9491 7.80194 27.829C5.99384 27.719 4.34338 27.0942 3.02875 26.0222C1.76025 24.9878 0.894012 23.5892 0.454163 21.8657C0.0713501 20.3652 0.0510559 18.8923 0.0316162 17.4677C0.0175171 16.4455 0.00299072 15.2342 0 14.0025C0.00299072 12.7656 0.0175171 11.5544 0.0316162 10.5322C0.0510559 9.10774 0.0713501 7.63481 0.454163 6.13411C0.894012 4.4106 1.76025 3.01201 3.02875 1.97764C4.34338 0.905683 5.99384 0.280836 7.80215 0.17082C9.77432 0.0509774 11.8027 -0.00499189 14.0021 0.000348694C16.1975 -0.00435101 18.2248 0.0509774 20.197 0.17082C22.0051 0.280836 23.6555 0.905683 24.9702 1.97764C26.2389 3.01201 27.1049 4.4106 27.5448 6.13411C27.9276 7.6346 27.9479 9.10774 27.9673 10.5322C27.9814 11.5544 27.9962 12.7656 27.9989 13.9974V14.0025C27.9962 15.2342 27.9814 16.4455 27.9673 17.4677C27.9479 18.8921 27.9278 20.365 27.5448 21.8657C27.1049 23.5892 26.2389 24.9878 24.9702 26.0222C23.6555 27.0942 22.0051 27.719 20.197 27.829C18.3083 27.944 16.3682 27.9999 14.2756 27.9999ZM13.9968 25.812C16.1559 25.8171 18.1383 25.7626 20.0641 25.6456C21.4313 25.5625 22.6167 25.1188 23.5878 24.3269C24.4855 23.5948 25.1037 22.5848 25.4252 21.3248C25.7439 20.0758 25.7623 18.7347 25.78 17.4378C25.7939 16.4224 25.8084 15.2197 25.8114 13.9999C25.8084 12.7799 25.7939 11.5774 25.78 10.5621C25.7623 9.26518 25.7439 7.92406 25.4252 6.67479C25.1037 5.41484 24.4855 4.40483 23.5878 3.67274C22.6167 2.88106 21.4313 2.43736 20.0641 2.35426C18.1383 2.23698 16.1559 2.18294 14.0019 2.18764C11.8433 2.18251 9.86063 2.23698 7.93481 2.35426C6.56763 2.43736 5.38223 2.88106 4.4111 3.67274C3.51346 4.40483 2.89523 5.41484 2.57373 6.67479C2.255 7.92406 2.23663 9.26497 2.2189 10.5621C2.20502 11.5783 2.19049 12.7816 2.1875 14.0025C2.19049 15.218 2.20502 16.4216 2.2189 17.4378C2.23663 18.7347 2.255 20.0758 2.57373 21.3248C2.89523 22.5848 3.51346 23.5948 4.4111 24.3269C5.38223 25.1186 6.56763 25.5623 7.93481 25.6454C9.86063 25.7626 11.8437 25.8173 13.9968 25.812ZM13.9447 20.8359C10.1755 20.8359 7.10873 17.7693 7.10873 13.9999C7.10873 10.2305 10.1755 7.16398 13.9447 7.16398C17.7141 7.16398 20.7806 10.2305 20.7806 13.9999C20.7806 17.7693 17.7141 20.8359 13.9447 20.8359ZM13.9447 9.35148C11.3816 9.35148 9.29623 11.4369 9.29623 13.9999C9.29623 16.563 11.3816 18.6484 13.9447 18.6484C16.5079 18.6484 18.5931 16.563 18.5931 13.9999C18.5931 11.4369 16.5079 9.35148 13.9447 9.35148ZM21.5462 4.97648C20.6403 4.97648 19.9056 5.71092 19.9056 6.61711C19.9056 7.5233 20.6403 8.25773 21.5462 8.25773C22.4524 8.25773 23.1869 7.5233 23.1869 6.61711C23.1869 5.71092 22.4524 4.97648 21.5462 4.97648Z" fill="#3B82F6"/>
</g>
<defs>
<clipPath id="clip0_129_1491">
<rect width="28" height="28" fill="white"/>
</clipPath>
</defs>
</svg>
