<svg viewBox="0 -19 512 512" xmlns="http://www.w3.org/2000/svg"><path fill="#3B82F6" d="m479.460938 192.980469h-48.191407v79.925781c0 40.03125-32.566406 72.597656-72.597656 72.597656h-116.992187v29.691406c0 17.941407 14.597656 32.539063 32.539062 32.539063h103.550781l49.371094 59.847656c2.957031 3.582031 7.324219 5.585938 11.851563 5.585938 1.125 0 2.261718-.125 3.390624-.378907 5.652344-1.277343 10.105469-5.632812 11.511719-11.257812l13.453125-53.796875h12.113282c17.941406 0 32.539062-14.59375 32.539062-32.539063v-149.675781c0-17.945312-14.597656-32.539062-32.539062-32.539062zm0 0"/><path fill="#3B82F6" d="m358.671875 0h-316.796875c-23.089844 0-41.875 18.785156-41.875 41.875v231.03125c0 23.089844 18.785156 41.871094 41.875 41.871094h30.785156l22.34375 89.359375c1.402344 5.628906 5.855469 9.980469 11.511719 11.261719 1.128906.253906 2.261719.378906 3.390625.378906 4.527344-.003906 8.894531-2.007813 11.847656-5.589844l78.714844-95.410156h158.203125c23.089844 0 41.875-18.78125 41.875-41.871094v-231.03125c0-23.089844-18.785156-41.875-41.875-41.875zm-68.179687 146.765625-33.964844 33.109375 8.019531 46.746094c.988281 5.765625-1.382813 11.589844-6.113281 15.027344-2.675782 1.945312-5.84375 2.933593-9.03125 2.933593-2.445313 0-4.898438-.582031-7.148438-1.765625l-41.980468-22.070312-41.984376 22.070312c-5.175781 2.722656-11.445312 2.269532-16.179687-1.167968-4.730469-3.4375-7.097656-9.261719-6.109375-15.027344l8.019531-46.75-33.96875-33.105469c-4.183593-4.082031-5.691406-10.1875-3.886719-15.746094 1.808594-5.5625 6.617188-9.617187 12.402344-10.457031l46.9375-6.820312 20.992188-42.535157c2.589844-5.242187 7.929687-8.5625 13.777344-8.5625 5.847656 0 11.1875 3.320313 13.773437 8.5625l20.992187 42.535157 46.9375 6.820312c5.789063.839844 10.597657 4.894531 12.402344 10.457031 1.808594 5.5625.300782 11.664063-3.886718 15.746094zm0 0"/><path fill="#3B82F6" d="m211.0625 134.582031-10.789062-21.859375-10.789063 21.859375c-2.238281 4.535157-6.5625 7.675781-11.566406 8.40625l-24.128907 3.503907 17.457032 17.019531c3.621094 3.527343 5.273437 8.613281 4.417968 13.597656l-4.121093 24.027344 21.582031-11.34375c4.472656-2.351563 9.820312-2.351563 14.296875 0l21.578125 11.34375-4.121094-24.027344c-.855468-4.984375.796875-10.070313 4.417969-13.597656l17.457031-17.019531-24.125-3.503907c-5.003906-.730469-9.328125-3.871093-11.566406-8.40625zm0 0"/></svg>