<svg width="28" height="28" viewBox="0 0 28 28" fill="none" xmlns="http://www.w3.org/2000/svg">
<path d="M18.2134 19.5318C18.1458 19.324 17.966 19.1725 17.7497 19.141L15.5145 18.8162L14.5149 16.7908C14.4181 16.5948 14.2186 16.4707 14 16.4707C13.7814 16.4707 13.5818 16.5948 13.485 16.7908L12.4855 18.8162L10.2502 19.141C10.0339 19.1725 9.85423 19.324 9.78664 19.5318C9.71916 19.7397 9.77543 19.9679 9.93195 20.1205L11.5494 21.6971L11.1676 23.9233C11.1306 24.1387 11.2191 24.3565 11.396 24.4849C11.5728 24.6134 11.8073 24.6304 12.0007 24.5286L14 23.4775L15.9993 24.5286C16.0833 24.5728 16.1751 24.5946 16.2665 24.5946C16.3855 24.5946 16.504 24.5576 16.604 24.4849C16.7808 24.3565 16.8694 24.1387 16.8325 23.9233L16.4506 21.6971L18.0681 20.1205C18.2246 19.9679 18.2809 19.7398 18.2134 19.5318Z" fill="#3B82F6"/>
<path d="M8.92706 19.5319C8.85936 19.324 8.67965 19.1725 8.46336 19.141L6.22812 18.8163L5.22854 16.7908C5.13175 16.5948 4.93219 16.4707 4.71361 16.4707C4.49502 16.4707 4.29547 16.5948 4.19867 16.7908L3.19909 18.8163L0.963849 19.141C0.74756 19.1725 0.567857 19.324 0.500263 19.5318C0.432779 19.7397 0.489052 19.9679 0.645568 20.1205L2.26301 21.6971L1.88123 23.9234C1.84426 24.1388 1.9328 24.3565 2.10966 24.485C2.28641 24.6135 2.52091 24.6304 2.7144 24.5287L4.71366 23.4776L6.71298 24.5287C6.79698 24.5729 6.88875 24.5946 6.98013 24.5946C7.09919 24.5946 7.21769 24.5577 7.31772 24.485C7.49452 24.3565 7.58311 24.1388 7.54615 23.9234L7.16432 21.6971L8.78175 20.1205C8.93827 19.968 8.9946 19.7398 8.92706 19.5319Z" fill="#3B82F6"/>
<path d="M27.4999 19.5318C27.4322 19.324 27.2525 19.1725 27.0362 19.141L24.801 18.8163L23.8014 16.7908C23.7046 16.5948 23.5051 16.4707 23.2865 16.4707C23.0679 16.4707 22.8683 16.5948 22.7715 16.7908L21.772 18.8163L19.5367 19.141C19.3204 19.1725 19.1407 19.324 19.0731 19.5318C19.0057 19.7397 19.0619 19.9679 19.2184 20.1205L20.8359 21.6971L20.4541 23.9233C20.4171 24.1387 20.5056 24.3565 20.6825 24.4849C20.7825 24.5576 20.901 24.5946 21.0201 24.5946C21.1115 24.5946 21.2032 24.5728 21.2872 24.5286L23.2865 23.4775L25.2858 24.5286C25.4792 24.6303 25.7136 24.6135 25.8905 24.4849C26.0673 24.3565 26.1559 24.1387 26.119 23.9233L25.7372 21.6971L27.3546 20.1204C27.5111 19.9679 27.5675 19.7397 27.4999 19.5318Z" fill="#3B82F6"/>
<path d="M24.0564 3.40527H3.94362C1.76914 3.40527 0 5.17436 0 7.3489V10.0099C0 12.0402 1.54197 13.717 3.51646 13.9305L4.36915 15.0666C4.65024 15.4411 5.07992 15.66 5.54805 15.6673C5.55609 15.6674 5.56418 15.6675 5.57216 15.6675C6.03116 15.6675 6.4575 15.4629 6.74505 15.1037L7.66604 13.9535H24.0564C26.2309 13.9535 28 12.1844 28 10.0099V7.34884C28 5.17436 26.2309 3.40527 24.0564 3.40527ZM12.2408 11.1155H4.774C4.32097 11.1155 3.95369 10.7482 3.95369 10.2952C3.95369 9.84216 4.32097 9.47487 4.774 9.47487H12.2408C12.6938 9.47487 13.0611 9.84216 13.0611 10.2952C13.0611 10.7482 12.6938 11.1155 12.2408 11.1155ZM23.226 7.81719H4.774C4.32097 7.81719 3.95369 7.44991 3.95369 6.99688C3.95369 6.54384 4.32097 6.17656 4.774 6.17656H23.226C23.679 6.17656 24.0463 6.54384 24.0463 6.99688C24.0463 7.44991 23.679 7.81719 23.226 7.81719Z" fill="#3B82F6"/>
</svg>
