<svg width="29" height="15" viewBox="0 0 29 15" fill="none" xmlns="http://www.w3.org/2000/svg">
<path d="M18.2926 6.29357C18.2419 6.13782 18.1073 6.02432 17.9452 6.00076L16.2704 5.75741L15.5215 4.23983C15.449 4.09297 15.2995 4 15.1357 4C14.9719 4 14.8224 4.09297 14.7499 4.23983L14.0009 5.75741L12.3262 6.00076C12.1641 6.02432 12.0295 6.13782 11.9788 6.29357C11.9283 6.44931 11.9704 6.6203 12.0877 6.73462L13.2996 7.91588L13.0135 9.58389C12.9858 9.74529 13.0521 9.90845 13.1846 10.0047C13.3171 10.1009 13.4928 10.1137 13.6377 10.0374L15.1357 9.2499L16.6337 10.0374C16.6966 10.0705 16.7654 10.0869 16.8338 10.0869C16.923 10.0869 17.0118 10.0592 17.0868 10.0047C17.2192 9.90845 17.2856 9.74529 17.2579 9.58389L16.9718 7.91588L18.1837 6.73462C18.301 6.6203 18.3432 6.44935 18.2926 6.29357Z" fill="#3B82F6"/>
<path d="M11.3349 6.29361C11.2841 6.13782 11.1495 6.02432 10.9874 6.00076L9.31267 5.75741L8.56373 4.23983C8.49121 4.09297 8.34169 4 8.17791 4C8.01414 4 7.86462 4.09297 7.7921 4.23983L7.04316 5.75741L5.36839 6.00076C5.20634 6.02432 5.0717 6.13782 5.02105 6.29357C4.97049 6.44931 5.01265 6.6203 5.12992 6.73462L6.34179 7.91592L6.05575 9.58393C6.02805 9.74533 6.09439 9.90845 6.2269 10.0047C6.35933 10.101 6.53503 10.1136 6.68 10.0375L8.17796 9.24994L9.67595 10.0375C9.73889 10.0706 9.80765 10.0869 9.87612 10.0869C9.96532 10.0869 10.0541 10.0592 10.1291 10.0047C10.2615 9.90849 10.3279 9.74533 10.3002 9.58393L10.0141 7.91592L11.226 6.73466C11.3433 6.62034 11.3855 6.44939 11.3349 6.29361Z" fill="#3B82F6"/>
<path d="M24.9801 6.2608C24.9322 6.10732 24.8051 5.99543 24.6521 5.97221L23.0712 5.73233L22.3642 4.2364C22.2957 4.09165 22.1546 4 22 4C21.8453 4 21.7042 4.09165 21.6357 4.2364L20.9287 5.73233L19.3478 5.97221C19.1948 5.99543 19.0677 6.10731 19.0199 6.26084C18.9721 6.41436 19.0119 6.58291 19.1226 6.6956L20.2667 7.86L19.9966 9.50421C19.9704 9.6633 20.0331 9.82414 20.1582 9.91901C20.2289 9.97269 20.3127 10 20.3969 10C20.4616 10 20.5265 9.98392 20.5859 9.95128L22 9.17499L23.4141 9.95128C23.5508 10.0264 23.7167 10.0139 23.8418 9.91901C23.9668 9.82414 24.0295 9.6633 24.0034 9.50421L23.7333 7.86L24.8773 6.69556C24.988 6.58287 25.0279 6.41436 24.9801 6.2608Z" fill="#3B82F6"/>
<path d="M7.21871 13.5841C7.21871 13.2844 6.99338 13.0183 6.68803 13.0183H2.64962C2.25491 13.0183 1.91136 12.6628 1.91136 12.1979V2.80212C1.91136 2.33717 2.25491 1.98175 2.64962 1.98175H18.6193C18.9247 1.98175 19.15 1.71562 19.15 1.41587C19.15 1.11613 18.9247 0.85 18.6193 0.85H2.64962C1.64494 0.85 0.85 1.73838 0.85 2.80212V12.1979C0.85 13.2616 1.64494 14.15 2.64962 14.15H6.68803C6.99338 14.15 7.21871 13.8839 7.21871 13.5841Z" fill="#3B82F6" stroke="#3B82F6" stroke-width="0.3"/>
<path d="M26.3425 0.85H21.3796C21.0737 0.85 20.8471 1.11606 20.8471 1.41667C20.8471 1.71727 21.0737 1.98333 21.3796 1.98333H26.3425C26.7399 1.98333 27.085 2.34001 27.085 2.80556L27.085 12.1944C27.085 12.66 26.7399 13.0167 26.3425 13.0167H9.38251C9.07653 13.0167 8.85 13.2827 8.85 13.5833C8.85 13.8839 9.07653 14.15 9.38251 14.15H26.3425C27.3511 14.15 28.15 13.2605 28.15 12.1944L28.15 2.80556C28.15 1.7395 27.3511 0.85 26.3425 0.85Z" fill="#3B82F6" stroke="#3B82F6" stroke-width="0.3"/>
</svg>
