<svg width="30" height="30" viewBox="0 0 30 30" fill="none" xmlns="http://www.w3.org/2000/svg">
<path d="M7.50019 22.7289C8.06835 22.7289 8.52894 22.2683 8.52894 21.7001C8.52894 21.132 8.06835 20.6714 7.50019 20.6714C6.93202 20.6714 6.47144 21.132 6.47144 21.7001C6.47144 22.2683 6.93202 22.7289 7.50019 22.7289Z" fill="#3B82F6"/>
<path d="M24.1501 22.7289C24.7183 22.7289 25.1788 22.2683 25.1788 21.7001C25.1788 21.132 24.7183 20.6714 24.1501 20.6714C23.5819 20.6714 23.1213 21.132 23.1213 21.7001C23.1213 22.2683 23.5819 22.7289 24.1501 22.7289Z" fill="#3B82F6"/>
<path d="M28.5626 16.1439L26.1751 10.8814C26.0751 10.6564 25.8501 10.5127 25.6063 10.5127H20.9313V7.34394C20.9313 6.14394 20.0063 5.16895 18.8688 5.16895H3.44385C2.30635 5.16895 1.38135 6.14394 1.38135 7.34394V20.1502C1.38135 21.3502 2.30635 22.3314 3.44385 22.3314H4.4376C4.73135 23.7564 5.99385 24.8314 7.5001 24.8314C9.00635 24.8314 10.2688 23.7564 10.5626 22.3314H21.0876C21.3813 23.7564 22.6438 24.8314 24.1501 24.8314C25.6563 24.8314 26.9188 23.7564 27.2126 22.3314H27.9938C28.3376 22.3314 28.6188 22.0502 28.6188 21.7064V16.4002C28.6188 16.3127 28.6001 16.2252 28.5626 16.1439ZM4.8001 13.2064V14.5689C4.8001 14.9127 4.51885 15.1939 4.1751 15.1939C3.8251 15.1939 3.5501 14.9127 3.5501 14.5689V10.7127C3.5501 10.3689 3.8251 10.0877 4.1751 10.0877H6.18135C6.5251 10.0877 6.80635 10.3689 6.80635 10.7127C6.80635 11.0564 6.5251 11.3377 6.18135 11.3377H4.8001V11.9564H6.18135C6.5251 11.9564 6.80635 12.2377 6.80635 12.5814C6.80635 12.9252 6.5251 13.2064 6.18135 13.2064H4.8001ZM7.5001 23.5814C6.46885 23.5814 5.6251 22.7377 5.6251 21.7064C5.6251 20.6752 6.46885 19.8314 7.5001 19.8314C8.53135 19.8314 9.3751 20.6752 9.3751 21.7064C9.3751 22.7377 8.53135 23.5814 7.5001 23.5814ZM10.8376 14.3252C10.9751 14.6439 10.8251 15.0127 10.5063 15.1439C10.4313 15.1814 10.3438 15.1939 10.2626 15.1939C10.0188 15.1939 9.78759 15.0502 9.6876 14.8127L9.1251 13.4939H8.7751V14.5689C8.7751 14.9127 8.49385 15.1939 8.1501 15.1939C7.80635 15.1939 7.5251 14.9127 7.5251 14.5689V10.7127C7.5251 10.3689 7.80635 10.0877 8.1501 10.0877C8.1751 10.0877 8.2001 10.1002 8.2251 10.1002C8.2501 10.1002 8.2751 10.0877 8.3001 10.0877H9.2626C10.2001 10.0877 10.9626 10.8502 10.9626 11.7939C10.9626 12.3252 10.7126 12.8002 10.3251 13.1127L10.8376 14.3252ZM14.2376 15.1939H12.1501C11.8001 15.1939 11.5251 14.9127 11.5251 14.5689V10.7127C11.5251 10.3689 11.8001 10.0877 12.1501 10.0877H14.1376C14.4876 10.0877 14.7626 10.3689 14.7626 10.7127C14.7626 11.0564 14.4876 11.3377 14.1376 11.3377H12.7751V11.9564H14.0376C14.3813 11.9564 14.6626 12.2377 14.6626 12.5814C14.6626 12.9252 14.3813 13.2064 14.0376 13.2064H12.7751V13.9439H14.2376C14.5813 13.9439 14.8626 14.2252 14.8626 14.5689C14.8626 14.9127 14.5813 15.1939 14.2376 15.1939ZM18.2251 15.1939H16.1376C15.7876 15.1939 15.5126 14.9127 15.5126 14.5689V10.7127C15.5126 10.3689 15.7876 10.0877 16.1376 10.0877H18.1251C18.4751 10.0877 18.7501 10.3689 18.7501 10.7127C18.7501 11.0564 18.4751 11.3377 18.1251 11.3377H16.7626V11.9564H18.0251C18.3688 11.9564 18.6501 12.2377 18.6501 12.5814C18.6501 12.9252 18.3688 13.2064 18.0251 13.2064H16.7626V13.9439H18.2251C18.5688 13.9439 18.8501 14.2252 18.8501 14.5689C18.8501 14.9127 18.5688 15.1939 18.2251 15.1939ZM24.1501 23.5814C23.1188 23.5814 22.2751 22.7377 22.2751 21.7064C22.2751 20.6752 23.1188 19.8314 24.1501 19.8314C25.1813 19.8314 26.0251 20.6752 26.0251 21.7064C26.0251 22.7377 25.1813 23.5814 24.1501 23.5814ZM27.3688 18.1564H27.0938C26.8501 18.1564 26.6501 18.4377 26.6501 18.7814V19.0564C26.6501 19.4002 26.8501 19.6814 27.0938 19.6814H27.3688V21.0814H27.2126C26.9188 19.6564 25.6563 18.5814 24.1501 18.5814C22.6438 18.5814 21.3813 19.6564 21.0876 21.0814H20.9313V11.7627H21.7001C22.1876 14.5689 24.5313 16.7377 27.3688 17.0189V18.1564Z" fill="#3B82F6"/>
<path d="M9.71265 11.7941C9.71265 12.0441 9.51265 12.2441 9.26265 12.2441H8.77515V11.3379H9.26265C9.51265 11.3379 9.71265 11.5441 9.71265 11.7941Z" fill="#3B82F6"/>
</svg>
