<svg width="26" height="26" viewBox="0 0 26 26" fill="none" xmlns="http://www.w3.org/2000/svg">
<path d="M14.3054 9.20685L12.9999 6.56201L11.6945 9.2068C11.5835 9.43161 11.3691 9.58741 11.121 9.62346L8.20264 10.0476L10.3146 12.1061C10.4941 12.281 10.576 12.5332 10.5336 12.7803L10.0352 15.6869L12.6454 14.3146C12.8673 14.198 13.1324 14.198 13.3543 14.3146L15.9647 15.6869L15.466 12.7804C15.4235 12.5333 15.5054 12.2811 15.685 12.1061L17.7969 10.0476L14.8788 9.62346C14.6308 9.58741 14.4164 9.43161 14.3054 9.20685Z" fill="#3B82F6"/>
<path d="M23.1985 0H2.8014C1.25673 0 0 1.25668 0 2.8014V19.935C0 21.4797 1.25673 22.7364 2.8014 22.7364H9.42094L12.4613 25.7769C12.6042 25.9197 12.7979 26 12.9999 26C13.2019 26 13.3957 25.9198 13.5385 25.7769L16.579 22.7364H23.1985C24.7433 22.7364 26 21.4797 26 19.935V2.8014C26 1.25668 24.7433 0 23.1985 0V0ZM19.9657 10.0613L17.0353 12.9175L17.7204 16.9092C17.7329 16.9639 17.7394 17.0209 17.7394 17.0794C17.7394 17.4994 17.3995 17.8401 16.9797 17.8411C16.9787 17.8411 16.9776 17.8411 16.9766 17.8411C16.8554 17.8411 16.7337 17.8122 16.6222 17.7536L13 15.8495L9.37813 17.7536C9.12153 17.8885 8.8105 17.8661 8.57594 17.6956C8.34138 17.5252 8.22392 17.2364 8.27293 16.9506L8.96452 12.9175L6.03418 10.0612C5.82649 9.85888 5.75179 9.55617 5.84137 9.28043C5.931 9.00463 6.16936 8.80364 6.45628 8.762L10.5057 8.1735L12.3169 4.50394C12.4452 4.24394 12.71 4.07936 12.9999 4.07936C13.2898 4.07936 13.5546 4.24394 13.683 4.50389L15.4943 8.1735L19.5435 8.762C19.8304 8.80369 20.0688 9.00463 20.1583 9.28043C20.2481 9.55622 20.1734 9.85893 19.9657 10.0613Z" fill="#3B82F6"/>
</svg>
