<svg id="Capa_1" enable-background="new 0 0 512 512" viewBox="0 0 512 512"  xmlns="http://www.w3.org/2000/svg"><path d="m494.96 310.19c-7.787-119.196-103.483-215.038-222.598-222.937-5.437-.36-10.942-.543-16.362-.543-132.052 0-239.484 107.432-239.484 239.484 0 24.011 3.565 47.732 10.594 70.506 5.197 16.834 21.379 28.591 39.352 28.591h379.067c17.991 0 34.195-11.818 39.405-28.737 8.578-27.849 11.951-56.906 10.026-86.364z" fill="#ff8086"/><path d="m75.839 408.774 11.161 8.226h336l13.161-8.226c11.546-25.146 18.032-53.098 18.032-82.581.001-109.46-88.732-198.193-198.193-198.193s-198.194 88.733-198.194 198.194c0 29.482 6.487 57.434 18.033 82.58z" fill="#ffa682"/><path d="m413.667 420.333c10.81 0 63.569-13.275 66.667-23.333l-3.427-41.421c-15.005 6.398-43.182 17.187-62.455 17.066 0 0 12.329-52.836-.835-94.661-1.647-5.232-7.916-7.393-12.488-4.364l-32.612 21.605s9.958-59.748-14.634-96.587c-2.626-3.933-8.052-4.732-11.861-1.929-16.118 11.857-31.828 13.871-31.828 13.871-3.647-25.423-16.064-39.866-25.291-47.304-4.647-3.746-11.578-1.197-13.038 4.589-10.814 42.845-37.025 61.296-37.025 61.296s-5.359-24.116-28.274-38.393c-5.359-3.339-12.336.346-12.666 6.651-1.274 24.403-8.78 79.959-48.694 129.462l-19.634-16.894c-4.525-3.894-11.404-1.792-13.282 3.875-10.759 32.453-33.381 51.637-32.46 94.912z" fill="#ffe07d"/><path d="m414.774 389.162c-.037 0-.396-.001-.433-.001-5.021-.033-9.754-2.349-12.861-6.293-3.108-3.943-4.253-9.086-3.112-13.976.092-.399 8.074-35.679 3.284-68.917-.421-2.921-3.717-4.427-6.176-2.797l-17.836 11.817c-2.764 1.831-5.943 2.747-9.122 2.747-3.126 0-6.253-.886-8.988-2.66-5.516-3.578-8.385-10.086-7.303-16.572.074-.453 6.693-42.314-6.083-73.317-.908-2.203-3.503-3.177-5.6-2.044-14.503 7.838-26.616 9.603-28.248 9.813-.712.091-1.421.136-2.12.136-8.096 0-15.149-5.949-16.329-14.172-1.129-7.869-3.261-14.366-5.875-19.706-1.507-3.078-5.942-2.965-7.276.192-14.037 33.23-35.281 48.504-36.349 49.255-2.823 1.988-6.151 3.011-9.508 3.011-2.011 0-4.032-.367-5.962-1.114-5.15-1.994-8.962-6.429-10.16-11.82-.004-.014-.983-3.905-3.711-9.089-1.786-3.394-6.875-2.596-7.492 1.189-5.071 31.084-17.894 73.264-49.451 112.404-2.807 3.481-6.905 5.675-11.359 6.081-.501.045-1.001.068-1.499.068-3.936 0-7.763-1.408-10.772-3.997l-6.632-5.707c-2.016-1.734-5.119-1.046-6.24 1.366-2.719 5.853-5.626 11.329-8.481 16.706-9.258 17.435-17.253 32.493-16.738 56.657.003.117-.007.234-.007.351l40.665 7.56h168l131.161-7.559c2.626-5.719 4.957-11.599 7.024-17.602 1.02-2.962-1.655-5.872-4.707-5.163-8.302 1.928-16.412 3.153-23.704 3.153z" fill="#fff"/><path d="m350.095 227.581-98.429 77.762 25.28 25.059 77.667-98.303c2.364-2.994-1.525-6.883-4.518-4.518z" fill="#ff8086"/><g fill="#5d5360"><path d="m57.806 334.452h-24.774c-4.565 0-8.258-3.694-8.258-8.258s3.694-8.258 8.258-8.258h24.774c4.565 0 8.258 3.694 8.258 8.258s-3.693 8.258-8.258 8.258z"/><path d="m478.968 334.452h-24.774c-4.565 0-8.258-3.694-8.258-8.258s3.694-8.258 8.258-8.258h24.774c4.565 0 8.258 3.694 8.258 8.258s-3.694 8.258-8.258 8.258z"/><path d="m256 136.258c-4.565 0-8.258-3.694-8.258-8.258v-24.774c0-4.565 3.694-8.258 8.258-8.258s8.258 3.694 8.258 8.258v24.774c0 4.565-3.694 8.258-8.258 8.258z"/><path d="m115.855 194.307c-2.113 0-4.226-.806-5.839-2.419l-17.516-17.517c-3.226-3.226-3.226-8.452 0-11.677 3.226-3.226 8.452-3.226 11.677 0l17.516 17.516c3.226 3.226 3.226 8.452 0 11.677-1.612 1.613-3.725 2.42-5.838 2.42z"/><path d="m396.145 194.307c-2.113 0-4.226-.806-5.839-2.419-3.226-3.226-3.226-8.452 0-11.677l17.516-17.516c3.226-3.226 8.452-3.226 11.677 0 3.226 3.226 3.226 8.452 0 11.677l-17.516 17.516c-1.612 1.612-3.725 2.419-5.838 2.419z"/><path d="m438.976 258.29c-3.234 0-6.298-1.911-7.621-5.081-1.758-4.21.234-9.048 4.444-10.798l22.871-9.524c4.202-1.75 9.04.226 10.798 4.444 1.758 4.21-.234 9.048-4.444 10.798l-22.871 9.524c-1.04.436-2.113.637-3.177.637z"/><path d="m179.839 151.476c-3.234 0-6.298-1.911-7.621-5.081l-9.524-22.871c-1.758-4.21.234-9.048 4.444-10.798s9.04.226 10.798 4.444l9.524 22.871c1.758 4.21-.234 9.048-4.444 10.798-1.04.435-2.113.637-3.177.637z"/><path d="m72.758 258.927c-1.048 0-2.121-.202-3.145-.621l-22.903-9.444c-4.218-1.742-6.226-6.565-4.492-10.782 1.742-4.21 6.597-6.194 10.782-4.492l22.903 9.444c4.218 1.742 6.226 6.573 4.492 10.782-1.314 3.186-4.395 5.113-7.637 5.113z"/><path d="m331.524 151.21c-1.048 0-2.121-.202-3.145-.621-4.218-1.742-6.226-6.573-4.492-10.782l9.444-22.903c1.734-4.218 6.597-6.202 10.782-4.492 4.218 1.742 6.226 6.573 4.492 10.782l-9.444 22.903c-1.314 3.185-4.395 5.113-7.637 5.113z"/></g><path d="m256 293.161c-5.941 0-11.515 1.568-16.332 4.313-9.975 5.685-10.668 16.417-10.668 28.72 0 18.243 8.757 29.056 27 29.056 12.316 0 23.058-2.765 28.738-12.758 2.733-4.809 4.294-10.372 4.294-16.298 0-18.244-14.789-33.033-33.032-33.033z" fill="#6f6571"/><path d="m268.387 346.839c-18.243 0-33.032-14.789-33.032-33.032 0-5.928 1.578-11.523 4.313-16.333-9.991 5.68-16.7 16.405-16.7 28.72 0 18.243 14.789 33.032 33.032 33.032 12.315 0 23.058-6.742 28.738-16.734-4.81 2.735-10.423 4.347-16.351 4.347z" fill="#5d5360"/><path d="m511.441 309.112c-8.292-126.927-111.066-229.922-237.986-238.339-73.258-4.858-140.468 21.122-189.924 66.235-51.326 46.818-75.864 114.241-75.864 189.186 0 26.244 3.974 51.55 11.329 75.377 7.423 24.046 22.3 30.429 47.466 30.429h379.067l40.611-6.71c6.625-6.478 11.721-14.597 14.578-23.875 8.906-28.913 12.833-60.004 10.723-92.303zm-42.291 82.58c-3.097 10.058-12.81 17.082-23.62 17.082h-379.068c-10.798 0-20.49-6.969-23.571-16.947-6.542-21.194-9.859-43.277-9.859-65.634 0-122.945 100.023-222.968 222.968-222.968 5.054 0 10.192.17 15.269.507 110.88 7.353 199.961 96.573 207.21 207.534 1.793 27.446-1.345 54.505-9.329 80.426z" fill="#eceaec"/><path d="m28.387 398.968c-11.282-29.745-12.903-53.85-11.871-89.29 1.938-66.513 25.399-127.143 67.016-172.668-51.327 46.817-83.532 114.238-83.532 189.184 0 26.244 3.974 51.55 11.329 75.377 7.423 24.046 29.967 40.236 55.133 40.236h379.067c15.451 0 30.066-6.219 40.612-16.516h-420.716c-13.262-.001-31.36-11.355-37.038-26.323z" fill="#dad8db"/></svg>