<svg id="Flat"  viewBox="0 0 64 64" xmlns="http://www.w3.org/2000/svg">
  <path
    d="m39.65 9.01 4.33 9.16-5.48 2.45-4.27-9.04c-1.89-3.99-6.66-5.7-10.65-3.81-3.99 1.88-5.7 6.66-3.82 10.65l5.48 11.58h-6.24c-.13 0-.26.01-.39.02l-4.27-9.04c-3.3-6.98-.31-15.34 6.67-18.64s15.34-.31 18.64 6.67z"
    fill="#cacae5"
  />
  <path
    d="m31 5c-5-2-10 0-13 4-3 5 1 12 0 17 0 .481-.235.96-.628 1.399l1.238 2.621c.13-.01.26-.02.39-.02h6.24l-5.48-11.58c-1.88-3.99-.17-8.77 3.82-10.65 3.99-1.89 8.76-.18 10.65 3.81l4.27 9.04 3.089-1.381c-2.711-6.202-5.589-12.239-10.589-14.239z"
    fill="#7876ab"
  />
  <path
    d="m35.4 52.68c.17.78-.42 1.52-1.22 1.52h-4.36c-.8 0-1.39-.74-1.22-1.52l1.7-7.63c-1.38-.72-2.27-2.24-1.98-3.95.25-1.52 1.48-2.77 3-3.04 2.36-.42 4.42 1.39 4.42 3.68 0 1.44-.83 2.68-2.04 3.31z"
    fill="#5e5e84"
  />
  <path
    d="m25.24 30h19.76c2.21 0 4 1.79 4 4v25c0 2.21-1.79 4-4 4h-26c-2.21 0-4-1.79-4-4v-25c0-2.08 1.58-3.79 3.61-3.98.13-.01.26-.02.39-.02zm8.94 24.2c.8 0 1.39-.74 1.22-1.52l-1.7-7.63c1.21-.63 2.04-1.87 2.04-3.31 0-2.29-2.06-4.1-4.42-3.68-1.52.27-2.75 1.52-3 3.04-.29 1.71.6 3.23 1.98 3.95l-1.7 7.63c-.17.78.42 1.52 1.22 1.52z"
    fill="#ffc32c"
  />
  <path
    d="m49 34v25c0 2.21-1.79 4-4 4h-26c-1.86 0-3.43-1.27-3.87-3h25.87c2.21 0 4-1.79 4-4v-25c0-.35-.04-.68-.13-1h.13c2.21 0 4 1.79 4 4z"
    fill="#ffa300"
  />
  <path
    d="m18 36.256v-1.994c0-.697.565-1.262 1.262-1.262h2.326c1.172 0 1.711 1.458.821 2.22l-2.326 1.994c-.818.702-2.083.12-2.083-.958z"
    fill="#ffedc5"
  />
  <g>
    <path
      d="m46 15c-.552 0-1-.447-1-1v-5c0-.553.448-1 1-1s1 .447 1 1v5c0 .553-.448 1-1 1z"
      fill="#ffc32c"
    />
  </g>
  <g>
    <path
      d="m49 16c-.256 0-.512-.098-.707-.293-.391-.391-.391-1.023 0-1.414l4-4c.391-.391 1.023-.391 1.414 0s.391 1.023 0 1.414l-4 4c-.195.195-.451.293-.707.293z"
      fill="#ffc32c"
    />
  </g>
  <g>
    <path
      d="m55 19h-4c-.552 0-1-.447-1-1s.448-1 1-1h4c.552 0 1 .447 1 1s-.448 1-1 1z"
      fill="#ffc32c"
    />
  </g>
</svg>